<?xml version="1.0" encoding="UTF-8"?>
<svg width="20px" height="20px" viewBox="0 0 20 20" version="1.1" xmlns="http://www.w3.org/2000/svg" xmlns:xlink="http://www.w3.org/1999/xlink">
    <title>Add URL</title>
    <g id="full-design" stroke="none" stroke-width="1" fill="none" fill-rule="evenodd">
        <g id="mockup-28" transform="translate(-1157.000000, -194.000000)" fill="#2E79A6" fill-rule="nonzero">
            <g id="noun_Close_3401998" transform="translate(1157.000000, 194.000000)">
                <path d="M18.5711336,0 L1.42886646,0 C0.640955127,0 0,0.640997212 0,1.42890683 L0,18.5710931 C0,19.3590028 0.640998605,20 1.42890993,20 L18.57109,20 C19.3590014,20 20,19.3590028 20,18.5710931 L20,1.42890683 C20,0.640997212 19.3590448,0 18.5711336,0 Z M1.30434498,1.42890683 C1.30434498,1.36021147 1.36021443,1.30434215 1.42890993,1.30434215 L18.57109,1.30434215 C18.6397855,1.30434215 18.6956549,1.36021147 18.6956549,1.42890683 L18.6956549,5.03163029 L1.30434498,5.03163029 L1.30434498,1.42890683 Z M18.6956984,18.5710931 C18.6956984,18.6397885 18.639829,18.6956578 18.5711336,18.6956578 L1.42886646,18.6956578 C1.36017095,18.6956578 1.30430151,18.6397885 1.30430151,18.5710931 L1.30430151,6.33592896 L18.6956984,6.33592896 L18.6956984,18.5710931 L18.6956984,18.5710931 Z" id="new-tab-ico-Shape"></path>
                <ellipse id="new-tab-ico-Oval" cx="3.3412536" cy="3.14624718" rx="1.14125838" ry="1.1412559"></ellipse>
                <path d="M7.3619405,13.1679862 L9.41015343,13.1679862 L9.41015343,15.2161947 C9.41015343,15.576367 9.7021528,15.8683658 10.0623259,15.8683658 C10.4224991,15.8683658 10.7144984,15.576367 10.7144984,15.2161947 L10.7144984,13.1679862 L12.7627113,13.1679862 C13.1228845,13.1679862 13.4148839,12.8759874 13.4148839,12.5158151 C13.4148839,12.1556428 13.1228845,11.8636441 12.7627113,11.8636441 L10.7144984,11.8636441 L10.7144984,9.81543556 C10.7144984,9.45526321 10.4224991,9.16326448 10.0623259,9.16326448 C9.7021528,9.16326448 9.41015343,9.45526321 9.41015343,9.81543556 L9.41015343,11.8636441 L7.3619405,11.8636441 C7.00176737,11.8636441 6.70976801,12.1556428 6.70976801,12.5158151 C6.70976801,12.8759874 7.00176737,13.1679862 7.3619405,13.1679862 Z" id="new-tab-ico-Path"></path>
            </g>
        </g>
    </g>
</svg>