<?xml version="1.0" encoding="UTF-8"?>
<svg width="22px" height="18px" viewBox="0 0 22 18" version="1.1" xmlns="http://www.w3.org/2000/svg" xmlns:xlink="http://www.w3.org/1999/xlink">
    <title>Shape</title>
    <g id="full-design" stroke="none" stroke-width="1" fill="none" fill-rule="evenodd">
        <g id="mockup-12" transform="translate(-9.000000, -136.000000)" fill="#FFFFFF" fill-rule="nonzero">
            <g id="Group" transform="translate(0.000000, 121.000000)">
                <path d="M20,15.3683083 C13.9397543,15.3683083 9,20.308094 9,26.3683083 C9,28.7902034 9.78734857,31.0400491 11.1214286,32.8602663 L13.0464286,31.249552 C12.0796543,29.8713149 11.5142857,28.187152 11.5142857,26.3683083 C11.5142857,21.6669083 15.2986,17.882594 20,17.882594 C24.7014314,17.882594 28.4857143,21.6669083 28.4857143,26.3683083 C28.4857143,28.187152 27.9203457,29.8713149 26.9535714,31.249552 L28.8785714,32.8602663 C30.2126514,31.0400491 31,28.7902034 31,26.3683083 C31,20.308094 26.0602457,15.3683083 20,15.3683083 L20,15.3683083 Z M23.9285714,22.7049311 L18.6348057,28.7254606 C18.2009029,29.4770749 18.4627029,30.4424034 19.2142857,30.8763691 C19.9659,31.310272 20.93126,31.0485034 21.3651943,30.2968891 L23.9285714,22.7049311 Z" id="Shape"></path>
            </g>
        </g>
    </g>
</svg>