<?xml version="1.0" encoding="UTF-8"?>
<svg width="30px" height="30px" viewBox="0 0 30 30" version="1.1" xmlns="http://www.w3.org/2000/svg" xmlns:xlink="http://www.w3.org/1999/xlink">
    <title>Refresh</title>
    <g id="full-design" stroke="none" stroke-width="1" fill="none" fill-rule="evenodd">
        <g id="mockup-12" transform="translate(-1230.000000, -87.000000)" stroke="#3492C9">
            <g id="Group-13" transform="translate(991.000000, 87.000000)">
                <g id="Group-6" transform="translate(239.000000, 0.000000)">
                    <rect id="Rectangle" stroke-width="2" x="1" y="1" width="28" height="28" rx="14"></rect>
                    <path d="M16.0864272,8 C12.275308,8 9.17612023,11.1412376 9.17612023,15 L9.17612023,15.023146 L7.80777494,12.9367029 C7.67387958,12.7316958 7.39955737,12.6754842 7.19708145,12.8110534 C6.99460554,12.9466226 6.93908795,13.2243741 7.07298331,13.4293812 L9.05855357,16.454889 C9.13039986,16.5640057 9.24470078,16.6334436 9.37206466,16.6499764 C9.39165911,16.6532829 9.40798781,16.6532829 9.42758225,16.6532829 C9.53535169,16.6532829 9.63985539,16.6136042 9.7214989,16.5375531 L12.4810497,14.0212565 C12.6606654,13.8559282 12.6769941,13.5748701 12.5137071,13.3897024 C12.3504201,13.2078413 12.0728321,13.1913085 11.8899506,13.3566368 L10.0578702,15.0330657 L10.0578702,15 C10.0578702,11.6306094 12.7619034,8.89277279 16.0864272,8.89277279 C19.4109511,8.89277279 22.1182501,11.6306094 22.1182501,15 C22.1182501,18.3693906 19.4142169,21.1072272 16.089693,21.1072272 C14.4796829,21.1072272 12.9643793,20.4723666 11.8279016,19.3183751 C11.6548173,19.1431271 11.3772294,19.1431271 11.2041451,19.3183751 C11.0310609,19.4936231 11.0310609,19.7746812 11.2041451,19.9499291 C12.5104413,21.2725555 14.2445496,22 16.089693,22 C19.8975465,22 23,18.862069 23,15 C23,11.137931 19.8975465,8 16.0864272,8 Z" id="Path" stroke-width="0.853333333" fill="#3492C9" fill-rule="nonzero"></path>
                </g>
            </g>
        </g>
    </g>
</svg>