<?xml version="1.0" encoding="UTF-8"?>
<svg width="14px" height="8px" viewBox="0 0 14 8" version="1.1" xmlns="http://www.w3.org/2000/svg" xmlns:xlink="http://www.w3.org/1999/xlink">
    <g id="Page-1" stroke="none" stroke-width="1" fill="none" fill-rule="evenodd">
        <g id="SearchLite-Main-Dashboard-Copy-9" transform="translate(-1172.000000, -447.000000)" fill="#2E79A6" fill-rule="nonzero">
            <g id="form" transform="translate(715.000000, 94.000000)">
                <path d="M458.005703,353 C457.739384,352.998365 457.483418,353.103152 457.29461,353.291139 C457.105794,353.478955 456.999833,353.734409 457,354.00074 C457.000168,354.267062 457.10663,354.522346 457.29578,354.709827 L463.295112,360.709234 C463.482424,360.895546 463.735849,361 464,361 C464.264137,361 464.517561,360.895546 464.704869,360.709234 L470.704201,354.709827 C470.892515,354.523181 470.998978,354.269256 471,354.004083 C471.001152,353.73893 470.896869,353.484148 470.710059,353.295853 C470.523415,353.107536 470.269493,353.001072 470.004323,353 L458.005703,353 Z" id="Path" transform="translate(464.000000, 357.000000) scale(1, -1) translate(-464.000000, -357.000000) "></path>
            </g>
        </g>
    </g>
</svg>