<?xml version="1.0" encoding="UTF-8"?>
<svg width="30px" height="30px" viewBox="0 0 30 30" version="1.1" xmlns="http://www.w3.org/2000/svg" xmlns:xlink="http://www.w3.org/1999/xlink">
    <title>Time Interval</title>
    <g id="full-design" stroke="none" stroke-width="1" fill="none" fill-rule="evenodd">
        <g id="mockup-12" transform="translate(-1268.000000, -87.000000)" stroke="#3492C9">
            <g id="Group-13" transform="translate(991.000000, 87.000000)">
                <g id="Group-8" transform="translate(277.000000, 0.000000)">
                    <g id="Group-7" stroke-width="2">
                        <g id="Group-6-Copy">
                            <rect id="Rectangle" x="1" y="1" width="28" height="28" rx="14"></rect>
                        </g>
                    </g>
                    <g id="noun_clock_102093" transform="translate(6.000000, 6.000000)" fill="#3492C9" fill-rule="nonzero" stroke-width="0.5">
                        <path d="M10.5111148,11.0505246 L8.62436066,9.50695082 C8.36262295,9.4042623 8.1147541,9.21659016 8.1147541,9 L8.11918033,8.94481967 C8.11180328,8.87104918 8.12065574,8.78960656 8.13747541,8.70698361 L8.40983607,5.16393443 C8.40983607,4.83816393 8.67422951,4.57377049 9,4.57377049 C9.32577049,4.57377049 9.59016393,4.83816393 9.59016393,5.16393443 L9.83714754,8.37206557 L11.3459016,10.2163279 C11.5760656,10.4467869 11.5760656,10.8203607 11.3459016,11.0508197 C11.1154426,11.2809836 10.7415738,11.2809836 10.5111148,11.0505246 Z M17.852459,9 C17.852459,13.888918 13.888918,17.852459 9,17.852459 C4.11108197,17.852459 0.147540984,13.888918 0.147540984,9 C0.147540984,4.11078689 4.11108197,0.147540984 9,0.147540984 C11.5179344,0.147540984 13.7871148,1.20157377 15.3988525,2.88944262 C15.728459,2.69734426 15.976918,2.55245902 16.005541,2.53593443 C16.1215082,2.46836066 16.2820328,2.53770492 16.2873443,2.69527869 C16.2920656,2.82157377 16.3708525,5.35308197 16.3776393,5.56937705 C16.3820656,5.71131148 16.2339344,5.79511475 16.1073443,5.72695082 C15.9662951,5.65081967 13.6841311,4.39318033 13.5221311,4.30052459 C13.4035082,4.23265574 13.3834426,4.06416393 13.5112131,3.98980328 C13.5601967,3.96118033 13.9148852,3.75462295 14.3421639,3.50557377 C12.9608852,2.16059016 11.0800328,1.32786885 9,1.32786885 C4.76291803,1.32786885 1.32786885,4.76291803 1.32786885,9 C1.32786885,13.237082 4.76291803,16.6721311 9,16.6721311 C13.237082,16.6721311 16.6721311,13.237082 16.6721311,9 C16.6721311,8.9002623 16.6612131,8.80347541 16.657082,8.70491803 L16.6721311,8.70491803 C16.6721311,8.37914754 16.9365246,8.1147541 17.2622951,8.1147541 C17.5880656,8.1147541 17.852459,8.37914754 17.852459,8.70491803 C17.852459,8.72498361 17.8483279,8.74445902 17.8462623,8.76393443 C17.8492131,8.84242623 17.852459,8.92062295 17.852459,9 Z" id="Shape"></path>
                    </g>
                </g>
            </g>
        </g>
    </g>
</svg>