<?xml version="1.0" encoding="UTF-8"?>
<svg width="10px" height="10px" viewBox="0 0 10 10" version="1.1" xmlns="http://www.w3.org/2000/svg" xmlns:xlink="http://www.w3.org/1999/xlink">
    <title>Group</title>
    <g id="full-design" stroke="none" stroke-width="1" fill="none" fill-rule="evenodd">
        <g id="mockup-25" transform="translate(-973.000000, -442.000000)" fill="#FFFFFF" fill-rule="nonzero">
            <g id="form" transform="translate(715.000000, 94.000000)">
                <g id="Group" transform="translate(258.000000, 348.000000)">
                    <path d="M4.75,0 C5.2628358,0 5.6855072,0.38604019 5.7432723,0.88337887 L5.75,1 L5.75,8.5 C5.75,9.0522847 5.3022847,9.5 4.75,9.5 C4.2371642,9.5 3.8144928,9.1139598 3.7567277,8.6166211 L3.75,8.5 L3.75,1 C3.75,0.44771525 4.1977153,0 4.75,0 Z" id="Path" transform="translate(4.750000, 4.750000) rotate(90.000000) translate(-4.750000, -4.750000) "></path>
                    <path d="M4.75,0 C5.2628358,0 5.6855072,0.38604019 5.7432723,0.88337887 L5.75,1 L5.75,8.5 C5.75,9.0522847 5.3022847,9.5 4.75,9.5 C4.2371642,9.5 3.8144928,9.1139598 3.7567277,8.6166211 L3.75,8.5 L3.75,1 C3.75,0.44771525 4.1977153,0 4.75,0 Z" id="Path" transform="translate(4.750000, 4.750000) rotate(-180.000000) translate(-4.750000, -4.750000) "></path>
                </g>
            </g>
        </g>
    </g>
</svg>