<?xml version="1.0" encoding="UTF-8"?>
<svg width="24px" height="24px" viewBox="0 0 24 24" version="1.1" xmlns="http://www.w3.org/2000/svg" xmlns:xlink="http://www.w3.org/1999/xlink">
    <title>Add</title>
    <g id="OTI-Provisioning-Portal" stroke="none" stroke-width="1" fill="none" fill-rule="evenodd">
        <g id="mockup-12-copy-2" transform="translate(-1208.000000, -200.000000)" fill="#2E79A6" fill-rule="nonzero">
            <g id="add-ico" transform="translate(1208.000000, 200.000000)">
                <path d="M12,0 C5.376,0 0,5.376 0,12 C0,18.624 5.376,24 12,24 C18.624,24 24,18.624 24,12 C24,5.376 18.624,0 12,0 Z M12,22.08 C6.432,22.08 1.92,17.568 1.92,12 C1.92,6.432 6.432,1.92 12,1.92 C17.568,1.92 22.08,6.432 22.08,12 C22.08,17.568 17.568,22.08 12,22.08 Z" id="Shape"></path>
                <path d="M16.8,11.04 L12.9599143,11.04 L12.9599143,7.19991429 C12.9599143,6.67191429 12.528,6.24 12,6.24 C11.472,6.24 11.0400857,6.67191429 11.0400857,7.19991429 L11.0400857,11.04 L7.2,11.04 C6.672,11.04 6.24008571,11.4719143 6.24008571,11.9999143 C6.24008571,12.5279143 6.672,12.9598286 7.2,12.9598286 L11.0400857,12.9598286 L11.0400857,16.7999143 C11.0400857,17.3279143 11.472,17.7598286 12,17.7598286 C12.528,17.7598286 12.9599143,17.3279143 12.9599143,16.7999143 L12.9599143,12.9598286 L16.8,12.9598286 C17.328,12.9598286 17.7599143,12.5279143 17.7599143,11.9999143 C17.7599143,11.4719143 17.328,11.04 16.8,11.04 Z" id="Path"></path>
            </g>
        </g>
    </g>
</svg>