<?xml version="1.0" encoding="UTF-8"?>
<svg width="24px" height="24px" viewBox="0 0 24 24" version="1.1" xmlns="http://www.w3.org/2000/svg" xmlns:xlink="http://www.w3.org/1999/xlink">
    <title>Calendar</title>
    <g id="full-design" stroke="none" stroke-width="1" fill="none" fill-rule="evenodd">
        <g id="mockup-20" transform="translate(-968.000000, -519.000000)" fill="#2E79A6" fill-rule="nonzero">
            <g id="form" transform="translate(715.000000, 136.000000)">
                <g id="calendar" transform="translate(253.000000, 383.000000)">
                    <path d="M21.1875,1.875 L20.0625,1.875 L20.0625,0 L18.1875,0 L18.1875,1.875 L5.8125,1.875 L5.8125,0 L3.9375,0 L3.9375,1.875 L2.8125,1.875 C1.2616875,1.875 0,3.1366875 0,4.6875 L0,21.1875 C0,22.7383125 1.2616875,24 2.8125,24 L21.1875,24 C22.7383125,24 24,22.7383125 24,21.1875 L24,4.6875 C24,3.1366875 22.7383125,1.875 21.1875,1.875 Z M22.125,21.1875 C22.125,21.7044375 21.7044375,22.125 21.1875,22.125 L2.8125,22.125 C2.2955625,22.125 1.875,21.7044375 1.875,21.1875 L1.875,8.8125 L22.125,8.8125 L22.125,21.1875 Z M22.125,6.9375 L1.875,6.9375 L1.875,4.6875 C1.875,4.1705625 2.2955625,3.75 2.8125,3.75 L3.9375,3.75 L3.9375,5.625 L5.8125,5.625 L5.8125,3.75 L18.1875,3.75 L18.1875,5.625 L20.0625,5.625 L20.0625,3.75 L21.1875,3.75 C21.7044375,3.75 22.125,4.1705625 22.125,4.6875 L22.125,6.9375 Z" id="Shape"></path>
                    <rect id="Rectangle" x="3.5625" y="10.78125" width="1.875" height="1.875"></rect>
                    <rect id="Rectangle" x="7.3125" y="10.78125" width="1.875" height="1.875"></rect>
                    <rect id="Rectangle" x="11.0625" y="10.78125" width="1.875" height="1.875"></rect>
                    <rect id="Rectangle" x="14.8125" y="10.78125" width="1.875" height="1.875"></rect>
                    <rect id="Rectangle" x="18.5625" y="10.78125" width="1.875" height="1.875"></rect>
                    <rect id="Rectangle" x="3.5625" y="14.53125" width="1.875" height="1.875"></rect>
                    <rect id="Rectangle" x="7.3125" y="14.53125" width="1.875" height="1.875"></rect>
                    <rect id="Rectangle" x="11.0625" y="14.53125" width="1.875" height="1.875"></rect>
                    <rect id="Rectangle" x="14.8125" y="14.53125" width="1.875" height="1.875"></rect>
                    <rect id="Rectangle" x="3.5625" y="18.28125" width="1.875" height="1.875"></rect>
                    <rect id="Rectangle" x="7.3125" y="18.28125" width="1.875" height="1.875"></rect>
                    <rect id="Rectangle" x="11.0625" y="18.28125" width="1.875" height="1.875"></rect>
                    <rect id="Rectangle" x="14.8125" y="18.28125" width="1.875" height="1.875"></rect>
                    <rect id="Rectangle" x="18.5625" y="14.53125" width="1.875" height="1.875"></rect>
                </g>
            </g>
        </g>
    </g>
</svg>