<?xml version="1.0" encoding="UTF-8"?>
<svg width="21px" height="20px" viewBox="0 0 21 20" version="1.1" xmlns="http://www.w3.org/2000/svg" xmlns:xlink="http://www.w3.org/1999/xlink">
    <title>Path</title>
    <g id="full-design" stroke="none" stroke-width="1" fill="none" fill-rule="evenodd">
        <g id="mockup-28" transform="translate(-1248.000000, -195.000000)" fill="#FFFFFF" fill-rule="nonzero">
            <path d="M1268.0144,211.705069 C1268.6671,212.508848 1268.60674,213.675915 1267.87459,214.408064 C1267.14244,215.140213 1265.97537,215.200579 1265.17159,214.547874 L1258.46653,207.849542 L1251.76146,214.547874 C1250.95768,215.200579 1249.79061,215.140213 1249.05846,214.408064 C1248.32631,213.675915 1248.26595,212.508848 1248.91865,211.705069 L1255.62372,205 L1248.91865,198.294931 C1248.26595,197.491152 1248.32631,196.324085 1249.05846,195.591936 C1249.79061,194.859787 1250.95768,194.799421 1251.76146,195.452126 L1258.46653,202.157195 L1265.17159,195.452126 C1265.97537,194.799421 1267.14244,194.859787 1267.87459,195.591936 C1268.60674,196.324085 1268.6671,197.491152 1268.0144,198.294931 L1261.30933,205 L1268.0144,211.705069 Z" id="Path"></path>
        </g>
    </g>
</svg>