<?xml version="1.0" encoding="UTF-8"?>
<svg width="10px" height="10px" viewBox="0 0 10 10" version="1.1" xmlns="http://www.w3.org/2000/svg" xmlns:xlink="http://www.w3.org/1999/xlink">
    <title>Copy Key</title>
    <g id="full-design" stroke="none" stroke-width="1" fill="none" fill-rule="evenodd">
        <g id="mockup-14" transform="translate(-511.000000, -750.000000)" fill="#3492C9" fill-rule="nonzero">
            <g id="Group-3" transform="translate(65.000000, 581.000000)">
                <g id="noun_Dropdown_615120" transform="translate(443.500000, 166.659878)">
                    <g id="werlink" transform="translate(3.028992, 3.022823)">
                        <path d="M7.07260283,5.3280025 L8.34587127,4.05712675 C9.27472528,3.13036503 9.27472528,1.62205859 8.34587127,0.695296882 C7.41711774,-0.231765627 5.9058336,-0.231765627 4.97708006,0.695296882 L3.13956672,2.52906783 C2.21071272,3.45582954 2.21071272,4.96413599 3.13956672,5.8908977 C3.27670958,6.02786151 3.42681319,6.14396992 3.58565777,6.24042613 L4.56936892,5.2586182 C4.38199058,5.21389942 4.20425746,5.1195488 4.05837363,4.97406235 C3.63619466,4.55274322 3.63619466,3.86712204 4.05837363,3.44590318 L5.89588697,1.61213222 C6.31806594,1.1908131 7.00508634,1.1908131 7.42716484,1.61213222 C7.8493438,2.03345136 7.8493438,2.71897227 7.42716484,3.1402914 L6.88733438,3.67912267 C7.10977708,4.20161053 7.17126531,4.77623688 7.07260283,5.3280025 Z" id="werShape"></path>
                        <path d="M1.9699843,3.69606768 L0.696715856,4.96684317 C-0.232238619,5.89370516 -0.232238619,7.40191133 0.696715856,8.3287733 C1.62536892,9.25573555 3.13675353,9.25573555 4.06550707,8.3287733 L5.90291994,6.49500235 C6.83177394,5.56814038 6.83167347,4.0599342 5.90291994,3.13317249 C5.76587755,2.99620868 5.61577394,2.88010026 5.45692936,2.78364405 L4.47321821,3.76545198 C4.66049608,3.81027103 4.8382292,3.90442112 4.9842135,4.05000784 C5.40639247,4.47132696 5.40639247,5.15684788 4.9842135,5.578167 L3.14659969,7.41193796 C2.72442072,7.83325709 2.03750079,7.83325709 1.61532182,7.41193796 C1.19314286,6.99061883 1.19314286,6.30509792 1.61532182,5.88377879 L2.15525275,5.34504779 C1.93270958,4.82255993 1.87122135,4.24783331 1.9699843,3.69606768 Z" id="werShape"></path>
                    </g>
                </g>
            </g>
        </g>
    </g>
</svg>