<?xml version="1.0" encoding="UTF-8"?>
<svg width="18px" height="20px" viewBox="0 0 18 20" version="1.1" xmlns="http://www.w3.org/2000/svg" xmlns:xlink="http://www.w3.org/1999/xlink">
    <title>noun_Close_3401998</title>
    <g id="full-design" stroke="none" stroke-width="1" fill="none" fill-rule="evenodd">
        <g id="mockup-28" transform="translate(-1193.000000, -194.000000)" fill="#2E79A6" fill-rule="nonzero">
            <g id="noun_Close_3401998" transform="translate(1193.000000, 194.000000)">
                <path d="M17.1408824,3.24725129 L14.4116382,3.24725129 L14.4116382,0.850332903 C14.4116382,0.380722385 14.0269826,0 13.5525207,0 L0.859117461,0 C0.384655525,0 0,0.380722385 0,0.850332903 L0,15.9024725 C0,16.372083 0.384655525,16.7528053 0.859117461,16.7528053 L3.58830453,16.7528053 L3.58830453,19.149667 C3.58830453,19.6192776 3.97296006,20 4.447422,20 L17.1408824,20 C17.6153444,20 18,19.6192776 18,19.149667 L18,4.0975842 C18,3.62797368 17.6153444,3.24725129 17.1408824,3.24725129 Z M1.71823493,15.0521396 L1.71823493,1.7006658 L12.6933459,1.7006658 L12.6933459,3.24725129 L4.44747928,3.24725129 C3.97301734,3.24725129 3.58836181,3.62797368 3.58836181,4.0975842 L3.58836181,15.0521396 L1.71823493,15.0521396 Z M16.281765,18.2993908 L5.30659674,18.2993908 L5.30659674,4.9479171 L16.281765,4.9479171 L16.281765,18.2993908 Z" id="copy-ico-Shape"></path>
            </g>
        </g>
    </g>
</svg>