<?xml version="1.0" encoding="UTF-8"?>
<svg width="24px" height="28px" viewBox="0 0 24 28" version="1.1" xmlns="http://www.w3.org/2000/svg" xmlns:xlink="http://www.w3.org/1999/xlink">
    <title>CSV</title>
    <g id="full-design" stroke="none" stroke-width="1" fill="none" fill-rule="evenodd">
        <g id="mockup-14-copy-5" transform="translate(-1003.000000, -180.000000)" fill-rule="nonzero">
            <g id="CSV" transform="translate(1003.000000, 180.000000)">
                <path d="M23.8559498,5.93794221 L18.095963,0.144888049 C18.0093931,0.0511398816 17.8872485,-0.0014444986 17.7599637,3.02046471e-05 L3.7725215,3.02046471e-05 C3.28202296,0.00264788037 2.81208484,0.199844823 2.46516907,0.548548063 C2.11845626,0.897466473 1.92238631,1.37011349 1.91981351,1.86340584 L1.91981351,11.1036031 C1.91981351,11.3701939 2.13474331,11.5863576 2.39981241,11.5863576 C2.66488152,11.5863576 2.87981132,11.3701939 2.87981132,11.1036031 L2.87981132,1.86340584 C2.87981132,1.62526166 2.97388013,1.39703188 3.14123792,1.22848711 C3.30880965,1.06016854 3.53573667,0.965559687 3.77253247,0.965559687 L17.2799758,0.965559687 L17.2799758,6.27585933 C17.2799758,6.40387479 17.3305474,6.52672064 17.4205469,6.61723574 C17.5105464,6.70775083 17.63269,6.75861384 17.7599747,6.75861384 L23.0399626,6.75861384 L23.0399626,26.1366559 C23.0399626,26.3748 22.9458938,26.6030298 22.778536,26.7715746 C22.6109643,26.9398932 22.3840373,27.034502 22.1472415,27.034502 L3.77288355,27.034502 C3.53609873,27.034502 3.3091717,26.9398932 3.141589,26.7715746 C2.97423121,26.6030409 2.8801624,26.3748111 2.8801624,26.1366559 L2.8801624,23.6551873 C2.8801624,23.3885965 2.66523261,23.1724328 2.4001635,23.1724328 C2.13509439,23.1724328 1.9201646,23.3885965 1.9201646,23.6551873 L1.9201646,26.1366559 C1.92273602,26.6299703 2.11880734,27.1026063 2.46552015,27.4515136 C2.8124469,27.8002169 3.28239599,27.9974124 3.77287258,28 L22.1472305,28 C22.637729,27.9974138 23.1076671,27.8002169 23.4545829,27.4515136 C23.8012957,27.1025952 23.9973657,26.6299482 23.9999699,26.1366559 L23.9999699,6.27585933 C24.0014385,6.14784387 23.9491529,6.02499802 23.8559388,5.93793117 L23.8559498,5.93794221 Z M18.2396883,1.6511373 L22.3580241,5.79311585 L18.2396883,5.79311585 L18.2396883,1.6511373 Z" id="Shape" fill="#3492C9"></path>
                <path d="M20.1602625,20.6423688 L20.1602625,14.1155278 C20.1628039,13.6997962 19.9997319,13.3004727 19.7076621,13.0064614 C19.4153785,12.7127149 19.0183289,12.5487053 18.6049264,12.5512627 L1.55536544,12.5512627 C1.14200684,12.5487066 0.744962721,12.7127149 0.452629677,13.0064614 C0.160559946,13.300423 -0.00251350919,13.699752 2.92975267e-05,14.1155278 L2.92975267e-05,20.6423688 L2.92975267e-05,20.6421533 C-0.00251213776,21.0578849 0.160559946,21.4572084 0.452629677,21.7512197 C0.74491335,22.0449662 1.14196295,22.2089758 1.55536544,22.2064184 L18.6049264,22.2064184 C19.018285,22.2089745 19.4153291,22.0449662 19.7076621,21.7512197 C19.9997319,21.4572581 20.1628053,21.0579291 20.1602625,20.6421533 L20.1602625,20.6423688 Z M4.32026881,18.6438755 C4.63591061,18.9751223 5.07367509,19.1602518 5.5299209,19.155507 C5.77399074,19.1557225 6.01549327,19.1065849 6.24026442,19.0106806 C6.48133358,18.888701 6.7016229,18.7290003 6.89295321,18.5376253 L7.44023972,19.0975102 C6.96173842,19.6639054 6.25911329,19.9890889 5.52024412,19.9858889 C4.80666404,20.0199405 4.11107707,19.7542109 3.60024852,19.2520468 C3.11810471,18.7529118 2.84854282,18.0846085 2.84854282,17.3887248 C2.84854282,16.692841 3.11811568,16.0243226 3.60024852,15.525182 C4.11238815,15.023029 4.8051829,14.7512851 5.52024412,14.7721953 C6.25631558,14.7629281 6.95897911,15.0808161 7.44023972,15.6411534 L6.90259707,16.2301691 C6.71166722,16.0271529 6.48345654,15.8631488 6.23059861,15.7474146 C5.99359984,15.6489216 5.73816911,15.6030186 5.48191004,15.6122875 C5.04798006,15.6288821 4.63502741,15.8038831 4.32025784,16.104526 C3.97525658,16.4280157 3.7862577,16.8857608 3.80190292,17.3596878 C3.79011743,17.8415816 3.97782937,18.306659 4.32025784,18.6439251 L4.32026881,18.6438755 Z M11.4527782,19.6093845 C11.0818515,19.8940828 10.6228464,20.0376126 10.1567812,20.0147714 C9.38554635,20.0188661 8.64135606,19.7292124 8.07369564,19.203799 L8.60169443,18.5567976 L8.60169443,18.5570131 C9.02705026,18.9664937 9.5876396,19.2035731 10.176036,19.2231591 C10.4063916,19.2358746 10.6348217,19.1750994 10.8287248,19.0492406 C10.9840798,18.9434208 11.0747256,18.7649782 11.0687242,18.5761853 C11.0757958,18.3949345 10.9885836,18.2231732 10.8383686,18.122523 C10.599011,17.9787725 10.3354395,17.8807154 10.0607155,17.8328703 C9.77807574,17.7645509 9.49930883,17.6807171 9.22562717,17.5817938 C9.0402708,17.5162771 8.86798685,17.41822 8.71670217,17.2921411 C8.4094151,17.0419253 8.24420222,16.655512 8.27527324,16.2589361 C8.25020194,15.8348018 8.44220314,15.4272742 8.7839843,15.1776763 C9.14741204,14.917331 9.58604875,14.7847914 10.0319814,14.8009568 C10.3581229,14.7994482 10.6825308,14.851603 10.9919792,14.9554824 C11.2900503,15.0537546 11.5668808,15.2076347 11.8079774,15.4093599 L11.3566906,16.046651 C11.1805502,15.8951433 10.9744031,15.7832932 10.7520017,15.7182069 C10.5115744,15.6315704 10.2585025,15.5858825 10.0033132,15.5830798 C9.79159799,15.5792005 9.58266956,15.6324327 9.39840484,15.7376054 C9.24540313,15.8354473 9.15712173,16.0093713 9.16804925,16.1914829 C9.15819199,16.3785489 9.24518919,16.5576425 9.39840484,16.6645382 C9.71683336,16.8268209 10.0560308,16.9438461 10.4064025,17.0121655 C10.8283298,17.0936324 11.2258566,17.2720751 11.5680547,17.5334963 C11.8311983,17.7832762 11.9747701,18.1352015 11.9616977,18.4990053 C11.9661977,18.9209824 11.7744104,19.3209569 11.4433428,19.5802651 L11.4527782,19.6093845 Z M15.2927694,19.9570119 L14.3327716,19.9570119 L12.326431,14.9266547 L13.2864288,14.9266547 L14.8320802,18.6824296 L16.3680766,14.9266547 L17.3280744,14.9266547 L15.2927694,19.9570119 Z" id="Shape" fill="#6929C4"></path>
            </g>
        </g>
    </g>
</svg>