<?xml version="1.0" encoding="UTF-8"?>
<svg width="21px" height="18px" viewBox="0 0 21 18" version="1.1" xmlns="http://www.w3.org/2000/svg" xmlns:xlink="http://www.w3.org/1999/xlink">
    <title>Home</title>
    <g id="full-design" stroke="none" stroke-width="1" fill="none" fill-rule="evenodd">
        <g id="mockup-07" transform="translate(-10.000000, -135.000000)" fill="#FFFFFF">
            <g id="Group" transform="translate(0.000000, 121.000000)">
                <g id="Home" transform="translate(10.000000, 14.000000)">
                    <path d="M3.59948249,17.0637313 L17.4004119,17.0637313 L17.4004119,8.59307421 L19.2759823,8.59307421 L16.7840874,6.46961678 L14.737571,4.7651396 L10.5013979,1.2372791 L1.73793591,8.59307421 L3.59948249,8.59307421 L3.59948249,17.0637313 Z M18.3675747,18 L2.6323197,18 L2.6323197,9.52934292 L0.508188427,9.52934292 C0.295896195,9.52934292 0.103914381,9.39966971 0.0308935905,9.20679835 C-0.0416436186,9.01556547 0.0163861487,8.79881926 0.175242637,8.66563504 L10.4987382,0 L17.4212059,5.76507458 L20.8273115,8.66727351 C20.9847172,8.80115993 21.041538,9.01790614 20.9685172,9.20843682 C20.8950129,9.40037191 20.7032728,9.52910885 20.4919478,9.52910885 L18.3678165,9.52910885 L18.3678165,18 L18.3675747,18 Z" id="Fill-1"></path>
                    <polygon id="Fill-3" points="14.5361593 18 2.6323197 18 2.6323197 9.52934292 1.80442835 9.52934292 10.4999472 2.28730446 19.195466 9.52934292 18.3675747 9.52934292 18.3675747 17.5318656 17.4004119 17.5318656 17.4004119 9.26929429 10.4999472 3.52224288 3.59948249 9.26929429 3.59948249 17.0637313 14.5361593 17.0637313"></polygon>
                    <path d="M15.5364474,4.19190908 L16.6179772,5.09283364 L16.6179772,2.91507263 L15.5364474,2.91507263 L15.5364474,4.19190908 Z M17.58514,7.13389943 L14.5692846,4.62165642 L14.5692846,2.44881081 C14.5692846,2.18969844 14.787138,1.97880392 15.0548004,1.97880392 L17.1487078,1.97880392 L17.1970659,1.98840067 C17.4219313,2.03334157 17.5853818,2.22691512 17.5853818,2.44904488 L17.5853818,7.13389943 L17.58514,7.13389943 Z" id="Fill-5"></path>
                </g>
            </g>
        </g>
    </g>
</svg>