<?xml version="1.0" encoding="UTF-8"?>
<svg width="16px" height="20px" viewBox="0 0 16 20" version="1.1" xmlns="http://www.w3.org/2000/svg" xmlns:xlink="http://www.w3.org/1999/xlink">
    <title>noun_Dropdown_615120</title>
    <g id="full-design" stroke="none" stroke-width="1" fill="none" fill-rule="evenodd">
        <g id="mockup-14" transform="translate(-1296.000000, -334.000000)" fill="#0084C9" fill-rule="nonzero">
            <g id="Group-4" transform="translate(64.000000, 313.000000)">
                <g id="noun_Dropdown_615120" transform="translate(1232.000000, 21.000000)">
                    <polygon id="Path" points="15.6408564 1.06692066 11.7306423 1.06692066 10.6134382 0 5.02741812 0 3.91021409 1.06692066 -3.55271368e-15 1.06692066 -3.55271368e-15 3.20076198 15.6408564 3.20076198"></polygon>
                    <path d="M1.09786531,17.0707305 L1.09786531,4.26768264 L14.6532742,4.26768264 L14.6532742,17.0707305 C14.6532742,18.2443433 13.6366185,19.2045719 12.3940394,19.2045719 L3.35710012,19.2045719 C2.11452098,19.2045719 1.09786531,18.2443433 1.09786531,17.0707305 Z M12.0880226,7.30459915 C12.0880226,7.08946649 11.9107061,6.92203293 11.682875,6.92203293 L10.8715488,6.92203293 C10.6447486,6.92203293 10.4674321,7.08946649 10.4674321,7.30459915 L10.4674321,15.7230028 C10.4674321,15.9381355 10.6447486,16.105569 10.8715488,16.105569 L11.682875,16.105569 C11.9107061,16.105569 12.0880226,15.9381355 12.0880226,15.7230028 L12.0880226,7.30459915 Z M8.84581064,7.30459915 C8.84581064,7.08946649 8.66952503,6.92203293 8.44169392,6.92203293 L7.63036775,6.92203293 C7.40253663,6.92203293 7.22522011,7.08946649 7.22522011,7.30459915 L7.22522011,15.7230028 C7.22522011,15.9381355 7.40253663,16.105569 7.63036775,16.105569 L8.44169392,16.105569 C8.66952503,16.105569 8.84581064,15.9381355 8.84581064,15.7230028 L8.84581064,7.30459915 Z M5.60462958,7.30459915 C5.60462958,7.08946649 5.42731306,6.92203293 5.19948195,6.92203293 L4.38815577,6.92203293 C4.16135557,6.92203293 3.98403905,7.08946649 3.98403905,7.30459915 L3.98403905,15.7230028 C3.98403905,15.9381355 4.16135557,16.105569 4.38815577,16.105569 L5.19948195,16.105569 C5.42731306,16.105569 5.60462958,15.9381355 5.60462958,15.7230028 L5.60462958,7.30459915 Z" id="Shape"></path>
                </g>
            </g>
        </g>
    </g>
</svg>