<?xml version="1.0" encoding="UTF-8"?>
<svg width="21px" height="20px" viewBox="0 0 21 20" version="1.1" xmlns="http://www.w3.org/2000/svg" xmlns:xlink="http://www.w3.org/1999/xlink">
    <title>Edit</title>
    <g id="full-design" stroke="none" stroke-width="1" fill="none" fill-rule="evenodd">
        <g id="mockup-14" transform="translate(-1252.000000, -334.000000)" fill="#0084C9" fill-rule="nonzero">
            <g id="Group-4" transform="translate(64.000000, 313.000000)">
                <g id="noun_Dropdown_615120" transform="translate(1188.500000, 21.013757)">
                    <path d="M6.32927187,17.7349105 C6.38360128,17.1235238 6.42789773,16.5159846 6.49737122,15.9112839 C6.51762644,15.734926 6.47850422,15.7213018 6.32277254,15.7409181 C5.71827113,15.8168605 5.11244461,15.8820171 4.50655499,15.9460383 C4.08801033,15.9901908 4.04548069,15.9372078 4.08864133,15.5288597 C4.14612576,14.9859095 4.18259776,14.4406255 4.24330031,13.8980537 C4.27365158,13.6265786 4.16934669,13.5333536 3.90811122,13.5609174 C3.34424643,13.6205233 2.77975065,13.6735064 2.21506556,13.7251018 C2.11637661,13.7340585 1.98254075,13.7936644 1.92928405,13.6763448 C1.87609045,13.5592774 2.01099901,13.4972747 2.08040941,13.4278921 C5.51022925,9.99604025 8.94181591,6.56595465 12.3732133,3.13567979 C12.7337056,2.77533189 12.737744,2.76738443 13.2035509,3.00681741 C14.9065664,3.88204715 16.1943184,5.18568279 17.1536962,6.83187916 C17.3122674,7.10398503 17.2863332,7.28141522 17.0564586,7.51018852 C13.5925645,10.9576829 10.1387666,14.4152693 6.68036225,17.8682512 C6.59574468,17.9527718 6.51989805,18.1220022 6.39237223,18.0726144 C6.25550756,18.0195683 6.35526922,17.8475625 6.32927187,17.7349105" id="Fill-1"></path>
                    <path d="M19.9814228,4.24093701 C19.9757285,4.3718374 19.904151,4.43490986 19.8399211,4.50067292 C19.2136029,5.14203477 18.5835496,5.77964232 17.9615787,6.42538421 C17.8020142,6.59094943 17.7145783,6.58331566 17.6048547,6.37100924 C16.7375978,4.69326919 15.4746136,3.41655237 13.8378222,2.5241521 C13.3940909,2.28224918 13.3692929,2.14133728 13.7149343,1.78818154 C14.2331822,1.25876079 14.7566345,0.734470937 15.2682084,0.198417567 C15.4620002,-0.00469078329 15.6331372,-0.0620692052 15.9079359,0.0740246526 C17.2403546,0.734095506 18.2912392,1.72636052 19.1934583,2.90358803 C19.4644608,3.25718177 19.700991,3.63273825 19.8963748,4.03501292 C19.9321942,4.10872261 19.9593189,4.18687489 19.9814228,4.24093701" id="Fill-3"></path>
                    <path d="M0.456018252,19.6238115 C0.0776149654,19.6291572 -0.0685313795,19.4434407 0.0297262806,19.0952144 C0.157683829,18.6418976 0.317376375,18.1971968 0.467783732,17.7502949 C0.72185451,16.9954167 0.978723565,16.241482 1.23622859,15.4877358 C1.26942632,15.3904438 1.27858432,15.2537192 1.38886185,15.2281856 C1.51510227,15.1990671 1.55033512,15.3422066 1.6072546,15.4222036 C2.33289855,16.4419778 3.20952223,17.313141 4.22987557,18.0443093 C4.31350587,18.1042443 4.44076385,18.1524186 4.42721765,18.2692068 C4.41284468,18.3934161 4.27025978,18.3935419 4.17499119,18.4251759 C3.04079889,18.8017031 1.90571622,19.1753373 0.769997584,19.546959 C0.650244073,19.5861399 0.524512427,19.6073341 0.456018252,19.6238115" id="Fill-6"></path>
                </g>
            </g>
        </g>
    </g>
</svg>