<?xml version="1.0" encoding="UTF-8"?>
<svg width="105px" height="102px" viewBox="0 0 105 102" version="1.1" xmlns="http://www.w3.org/2000/svg" xmlns:xlink="http://www.w3.org/1999/xlink">
    <g id="SIgn-in-" stroke="none" stroke-width="1" fill="none" fill-rule="evenodd">
        <g id="mockup-12" transform="translate(-897.000000, -357.000000)">
            <g id="Group-6" transform="translate(730.000000, 147.000000)">
                <g id="EmailSent" transform="translate(170.000000, 214.000000)">
                    <polygon id="Rectangle" fill="#8ED2FA" points="17.292287 38.2442801 55.4156804 0.000863638326 81.7055609 26.3763781 45.58021 64.6186071"></polygon>
                    <polygon id="Path" stroke="#2E79A6" stroke-width="4.3076" points="54.3632674 53.8066109 43.5841043 64.6204423 17.2931478 38.2449278 55.4146043 0.000863638326 81.7055609 26.3763781"></polygon>
                    <polyline id="Path" stroke="#2E79A6" stroke-width="4.3076" points="55.4156804 0 52.0729239 34.6275787 17.2937935 38.2442801"></polyline>
                    <line x1="81.706637" y1="26.3752986" x2="53.319463" y2="23.0867797" id="Path" stroke="#2E79A6" stroke-width="4.3076"></line>
                    <line x1="43.5830283" y1="64.6193628" x2="40.568263" y2="35.8753202" id="Path" stroke="#2E79A6" stroke-width="4.3076"></line>
                    <line x1="30.43755" y1="51.4316055" x2="17.292287" y2="64.6200105" id="Path" stroke="#2E79A6" stroke-width="4.3076"></line>
                    <line x1="35.697463" y1="56.7062766" x2="26.4960587" y2="65.9381385" id="Path" stroke="#2E79A6" stroke-width="4.3076"></line>
                    <line x1="40.9552239" y1="61.9809477" x2="35.6976783" y2="67.2562665" id="Path" stroke="#2E79A6" stroke-width="4.3076"></line>
                    <polygon id="Path" stroke="#2E79A6" stroke-width="4.3076" points="90.3906587 95 8.60805 95 0 86.3642645 0 77.7276653 99 77.7276653 99 86.3642645"></polygon>
                    <line x1="38.7384848" y1="86.3636167" x2="60.2602239" y2="86.3636167" id="Path" stroke="#2E79A6" stroke-width="4.3076" stroke-dasharray="4.307600021362305,4.307600021362305"></line>
                    <polyline id="Path" stroke="#2E79A6" stroke-width="4.3076" points="42.502637 12.9541431 4.30585435 12.9541431 4.30585435 77.7270176 94.6971587 77.7270176 94.6971587 12.9541431 68.3308761 12.9541431"></polyline>
                </g>
            </g>
        </g>
    </g>
</svg>