<?xml version="1.0" encoding="UTF-8"?>
<svg width="30px" height="30px" viewBox="0 0 30 30" version="1.1" xmlns="http://www.w3.org/2000/svg" xmlns:xlink="http://www.w3.org/1999/xlink">
    <title>Filters</title>
    <g id="full-design" stroke="none" stroke-width="1" fill="none" fill-rule="evenodd">
        <g id="mockup-15" transform="translate(-1268.000000, -87.000000)">
            <g id="Group-13" transform="translate(953.000000, 87.000000)">
                <g id="Group-6-Copy" transform="translate(315.000000, 0.000000)">
                    <rect id="Rectangle" stroke="#3492C9" stroke-width="2" x="1" y="1" width="28" height="28" rx="14"></rect>
                    <g id="noun_filter_4035684" transform="translate(8.000000, 8.000000)" fill="#3492C9" fill-rule="nonzero">
                        <path d="M13.3,6.29738658 L6.174,6.29738658 C5.86982662,5.46876301 5.08329549,4.91829396 4.2035,4.91829396 C3.32370451,4.91829396 2.53717338,5.46876301 2.233,6.29738658 L0.7,6.29738658 C0.313400675,6.29738658 0,6.61195732 0,7 C0,7.38804268 0.313400675,7.70261342 0.7,7.70261342 L2.226,7.70261342 C2.53017338,8.53123699 3.31670451,9.08170604 4.1965,9.08170604 C5.07629549,9.08170604 5.86282662,8.53123699 6.167,7.70261342 L13.3,7.70261342 C13.6865993,7.70261342 14,7.38804268 14,7 C14,6.61195732 13.6865993,6.29738658 13.3,6.29738658 Z M4.2,7.70261342 C3.81340068,7.70261342 3.5,7.38804268 3.5,7 C3.5,6.61195732 3.81340068,6.29738658 4.2,6.29738658 C4.58659932,6.29738658 4.9,6.61195732 4.9,7 C4.9,7.38804268 4.58659932,7.70261342 4.2,7.70261342 Z M13.3,11.2156805 L10.374,11.2156805 C10.0698266,10.387057 9.28329549,9.83658792 8.4035,9.83658792 C7.52370451,9.83658792 6.73717338,10.387057 6.433,11.2156805 L0.7,11.2156805 C0.313400675,11.2156805 0,11.5302513 0,11.918294 C0,12.3063366 0.313400675,12.6209074 0.7,12.6209074 L6.426,12.6209074 C6.73017338,13.4495309 7.51670451,14 8.3965,14 C9.27629549,14 10.0628266,13.4495309 10.367,12.6209074 L13.3,12.6209074 C13.6865993,12.6209074 14,12.3063366 14,11.918294 C14,11.5302513 13.6865993,11.2156805 13.3,11.2156805 Z M8.4,12.6209074 C8.01340068,12.6209074 7.7,12.3063366 7.7,11.918294 L7.7,11.918294 C7.7,11.5302513 8.01340068,11.2156805 8.4,11.2156805 C8.78659932,11.2156805 9.1,11.5302513 9.1,11.918294 C9.1,12.3063366 8.78659932,12.6209074 8.4,12.6209074 Z M0.7,2.78431946 L8.526,2.78431946 C8.83017338,3.61294303 9.61670451,4.16341208 10.4965,4.16341208 C11.3762955,4.16341208 12.1628266,3.61294303 12.467,2.78431946 L13.3,2.78431946 C13.6865993,2.78431946 14,2.46974872 14,2.08170604 C14,1.69366336 13.6865993,1.37909262 13.3,1.37909262 L12.474,1.37909262 C12.1698266,0.550469054 11.3832955,0 10.5035,0 C9.62370451,0 8.83717338,0.550469054 8.533,1.37909262 L0.7,1.37909262 C0.313400675,1.37909262 0,1.69366336 0,2.08170604 C0,2.46974872 0.313400675,2.78431946 0.7,2.78431946 Z M10.5,1.37909262 C10.8865993,1.37909262 11.2,1.69366336 11.2,2.08170604 C11.2,2.46974872 10.8865993,2.78431946 10.5,2.78431946 C10.1134007,2.78431946 9.8,2.46974872 9.8,2.08170604 C9.8,1.69366336 10.1134007,1.37909262 10.5,1.37909262 Z" id="Shape"></path>
                    </g>
                </g>
            </g>
        </g>
    </g>
</svg>