<?xml version="1.0" encoding="UTF-8"?>
<svg width="21px" height="21px" viewBox="0 0 21 21" version="1.1" xmlns="http://www.w3.org/2000/svg" xmlns:xlink="http://www.w3.org/1999/xlink">
    <g id="full-design" stroke="none" stroke-width="1" fill="none" fill-rule="evenodd">
        <g id="mockup-11" transform="translate(-184.000000, -25.000000)" fill="#2E79A6" fill-rule="nonzero">
            <g id="Group" transform="translate(184.000000, 25.000000)">
                <path d="M10.5,11.1829222 L13.3492086,8.7407434 C13.7685345,8.3813212 14.3998345,8.4298828 14.7592566,8.8492086 C15.1186788,9.2685345 15.0701172,9.8998345 14.6507914,10.2592566 L11.1507914,13.2592566 C10.7763016,13.5802478 10.2236984,13.5802478 9.8492086,13.2592566 L6.3492086,10.2592566 C5.9298828,9.8998345 5.8813212,9.2685345 6.2407434,8.8492086 C6.6001655,8.4298828 7.2314655,8.3813212 7.6507914,8.7407434 L10.5,11.1829222 Z M10.5,21 C4.7010101,21 0,16.2989899 0,10.5 C0,4.7010101 4.7010101,0 10.5,0 C16.2989899,0 21,4.7010101 21,10.5 C21,16.2989899 16.2989899,21 10.5,21 Z M10.5,19 C15.1944204,19 19,15.1944204 19,10.5 C19,5.8055796 15.1944204,2 10.5,2 C5.8055796,2 2,5.8055796 2,10.5 C2,15.1944204 5.8055796,19 10.5,19 Z" id="Shape"></path>
            </g>
        </g>
    </g>
</svg>