<?xml version="1.0" encoding="UTF-8"?>
<svg width="123px" height="124px" viewBox="0 0 123 124" version="1.1" xmlns="http://www.w3.org/2000/svg" xmlns:xlink="http://www.w3.org/1999/xlink">
    <g id="SIgn-in-" stroke="none" stroke-width="1" fill="none" fill-rule="evenodd">
        <g id="mockup-17" transform="translate(-888.000000, -353.000000)">
            <g id="NewPassword" transform="translate(888.000000, 353.000000)">
                <g id="noun-password-2762854" transform="translate(0.000000, 15.000000)">
                    <polygon id="Path" fill="#44C5FF" fill-rule="nonzero" points="58.0159884 87.9031655 61.5321174 87.9031655 61.5321174 91.4192946 58.0159884 91.4192946"></polygon>
                    <polygon id="Path" fill="#44C5FF" fill-rule="nonzero" points="52.7417948 93.1773591 56.2579239 93.1773591 56.2579239 96.6934881 52.7417948 96.6934881"></polygon>
                    <polygon id="Path" fill="#44C5FF" fill-rule="nonzero" points="58.0159884 98.4515526 61.5321174 98.4515526 61.5321174 101.967682 58.0159884 101.967682"></polygon>
                    <polygon id="Path" fill="#44C5FF" fill-rule="nonzero" points="63.2901819 93.1773591 66.806311 93.1773591 66.806311 96.6934881 63.2901819 96.6934881"></polygon>
                    <polygon id="Path" fill="#44C5FF" fill-rule="nonzero" points="36.9192142 87.9031655 40.4353432 87.9031655 40.4353432 91.4192946 36.9192142 91.4192946"></polygon>
                    <polygon id="Path" fill="#44C5FF" fill-rule="nonzero" points="31.6450206 93.1773591 35.1611497 93.1773591 35.1611497 96.6934881 31.6450206 96.6934881"></polygon>
                    <polygon id="Path" fill="#44C5FF" fill-rule="nonzero" points="36.9192142 98.4515526 40.4353432 98.4515526 40.4353432 101.967682 36.9192142 101.967682"></polygon>
                    <polygon id="Path" fill="#44C5FF" fill-rule="nonzero" points="42.1934077 93.1773591 45.7095368 93.1773591 45.7095368 96.6934881 42.1934077 96.6934881"></polygon>
                    <polygon id="Path" fill="#44C5FF" fill-rule="nonzero" points="15.82244 87.9031655 19.338569 87.9031655 19.338569 91.4192946 15.82244 91.4192946"></polygon>
                    <polygon id="Path" fill="#44C5FF" fill-rule="nonzero" points="10.5482465 93.1773591 14.0643755 93.1773591 14.0643755 96.6934881 10.5482465 96.6934881"></polygon>
                    <polygon id="Path" fill="#44C5FF" fill-rule="nonzero" points="15.82244 98.4515526 19.338569 98.4515526 19.338569 101.967682 15.82244 101.967682"></polygon>
                    <polygon id="Path" fill="#44C5FF" fill-rule="nonzero" points="21.0966335 93.1773591 24.6127626 93.1773591 24.6127626 96.6934881 21.0966335 96.6934881"></polygon>
                    <path d="M38.6772787,77.3547784 C42.0323867,77.3547784 45.025278,84.4397472 43.9514723,80.8709075 C42.3691042,75.611839 34.2672973,66.0162467 35.1611497,60 C37.5,44.2579138 45.7992196,46.1898199 54,44.2579138 C54.4131289,44.1605906 66.6805984,49.5784592 69.483011,52.7418752 C71.162489,54.6377015 70.9563746,58.5942038 73.838569,60 C76.3782309,61.2387252 82.4067959,59.1754803 85.0131796,60 C95.7525863,63.3973709 105.484092,61.5592764 105.484092,52.7418752 C105.484092,28.0414582 90.7521218,46.5946482 92.6438598,42.8878734 C100.17611,28.1287711 87.2816911,19.9412427 85.0131796,18.7406817 C66.806311,9.10508789 71.8922593,26.3955207 72.0805045,24.1098443 C73.1439972,11.1968997 64.4922746,3.51582765 47.4680433,3.51582765 C21.0618596,3.51582765 24.6127626,21.096513 22.8546981,31.64488 C22.3522051,34.6598322 18.4096096,35.4827984 16,37.960401 C13.2366603,40.801715 12,45.3003392 12,49 C12,57.5887223 15.82244,63.2902623 24.6127626,63.2902623 C28.9923917,63.2902623 34.041313,61.1132977 35.1611497,66.5214844 C36.2889293,71.968031 38.6772787,74.4392144 38.6772787,77.3547784 Z" id="Oval" fill="#8ED2FA"></path>
                    <path d="M54.5001607,19.8972986 C64.2402631,18.2626302 69.1103143,27.4302097 69.1103143,47.4000372 C69.1103143,51.7805507 68.826744,50.5530118 68,49.2257462 C67.5658977,48.5288327 66.6150488,47.920263 65.1474533,47.4000372 L54.5001607,43.7806572 L47.5368964,45.7096171 L41.3671729,49.2257462 L40.3356777,42.8878734 L40.3356777,32.6915898 L43.4181839,25.1191386 L47.5368964,21.096513 L52.842885,19.2918012 L54.5001607,19.8972986 Z" id="Path-3" stroke="#979797" fill="#FFFFFF"></path>
                    <polygon id="Path-4" fill="#8ED2FA" points="54.4998594 26.6917291 57.6500307 27.115393 59.7740529 29.3538426 60.4086855 31.2289775 61.3791805 34.875545 61.3791805 39.5514404 61.3791805 43.6194258 61.3791805 45.7096171 57.1029813 44.3310868 53.2810379 44.3310868 50.0264979 44.3310868 47.9845232 44.3310868 46.9147794 41.0623149 47.4126708 34.875545 48.8101683 29.3538426 51.494788 27.5970279"></polygon>
                    <path d="M96.6934077,38.6773591 L95.9446531,38.6773591 C96.4210584,36.9985582 96.6934077,35.2333609 96.6934077,33.4031655 C96.6934077,22.7402531 88.0176105,14.0644559 77.3546981,14.0644559 C75.2574778,14.0644559 73.2130999,14.4058619 71.2525064,15.0580737 C67.00884,6.17050507 57.9563147,0 47.4674004,0 C32.926499,0 21.0964326,11.8300664 21.0964326,26.3709677 C21.0964326,28.3856092 21.3248203,30.3861862 21.776894,32.33593 C15.1683797,34.3247329 10.5479853,40.4127797 10.5479853,47.4677419 C10.5479853,56.1929659 17.6453419,63.2903226 26.3705659,63.2903226 L33.402824,63.2903226 C33.402824,70.6247668 37.1684977,77.0896221 42.8626175,80.8709677 L8.79032258,80.8709677 C3.94308756,80.8709677 0,84.8140553 0,89.6612903 L0,100.209677 C0,105.056912 3.94308756,109 8.79032258,109 L68.5645161,109 C73.4117512,109 77.3548387,105.056912 77.3548387,100.209677 L77.3548387,89.6612903 C77.3548387,84.8140553 73.4117512,80.8709677 68.5645161,80.8709677 L66.1369806,80.8709677 C71.8311005,77.0896221 75.5967742,70.6247668 75.5967742,63.2903226 L96.6935484,63.2903226 C103.477869,63.2903226 109,57.7681917 109,50.983871 C109,44.1995502 103.477869,38.6774194 96.6935484,38.6774194 L96.6934077,38.6773591 Z M68.5643755,84.3870365 C71.4723147,84.3870365 73.838569,86.7532909 73.838569,89.66123 L73.838569,100.209617 C73.838569,103.117556 71.4723147,105.483811 68.5643755,105.483811 L8.79018194,105.483811 C5.88224276,105.483811 3.51598839,103.117556 3.51598839,100.209617 L3.51598839,89.66123 C3.51598839,86.7532909 5.88224276,84.3870365 8.79018194,84.3870365 L68.5643755,84.3870365 Z M54.4998594,80.8709075 C44.806193,80.8709075 36.9192142,72.9839287 36.9192142,63.2902623 C36.9192142,53.5965959 44.806193,45.7096171 54.4998594,45.7096171 C57.8351412,45.7096171 60.9565421,46.6433005 63.616401,48.2630061 C68.6871587,51.3508144 72.0805045,56.9318778 72.0805045,63.2902623 C72.0805045,72.9839287 64.1935257,80.8709075 54.4998594,80.8709075 Z M66.806311,46.1898199 C65.7075106,45.3971237 64.5334852,44.7095899 63.2901819,44.1366015 L63.2901819,33.4029646 C63.2901819,28.5557296 59.3470944,24.612642 54.4998594,24.612642 C49.6526243,24.612642 45.7095368,28.5557296 45.7095368,33.4029646 L45.7095368,44.1357978 C44.466334,44.708746 43.2922483,45.3962597 42.1934077,46.1890162 L42.1934077,33.4029646 C42.1934077,26.6186439 47.7155386,21.096513 54.4998594,21.096513 C61.2841801,21.096513 66.806311,26.6186439 66.806311,33.4029646 L66.806311,46.1898199 Z M59.7740529,42.8878734 C58.0842616,42.4499244 56.3246299,42.1932872 54.4998594,42.1932872 C52.6750888,42.1932872 50.915417,42.4499244 49.2256658,42.8878734 L49.2256658,33.4029646 C49.2256658,30.4950254 51.5919202,28.1287711 54.4998594,28.1287711 C57.4077985,28.1287711 59.7740529,30.4950254 59.7740529,33.4029646 L59.7740529,42.8878734 Z M96.6934077,59.7739324 L75.2791773,59.7739324 C74.6128407,55.8308448 72.856263,52.2612706 70.3228418,49.3816614 L70.3228418,33.4029646 C70.3228418,24.6777406 63.2254852,17.580384 54.5002612,17.580384 C45.7750372,17.580384 38.6776806,24.6777406 38.6776806,33.4029646 L38.6776806,49.3816614 C36.142652,52.2612706 34.3861948,55.8300411 33.7213451,59.7739324 L26.3712289,59.7739324 C19.5869082,59.7739324 14.0647773,54.2518015 14.0647773,47.4674807 C14.0647773,41.4798144 18.3476234,36.3862494 24.247487,35.3579324 L26.2127419,35.0149591 L25.6256689,33.1077705 C24.9522599,30.9313871 24.6132046,28.6631825 24.6132046,26.3706664 C24.6132046,13.7690608 34.8664378,3.51582765 47.4680433,3.51582765 C60.0696488,3.51582765 70.322882,13.7690608 70.322882,26.3706664 L73.8390111,26.3706664 C73.8390111,23.5609779 73.3869373,20.8571751 72.5699095,18.3149134 C74.1097932,17.826734 75.7133288,17.5803036 77.3550597,17.5803036 C86.0802837,17.5803036 93.1776404,24.6776603 93.1776404,33.4028842 C93.1776404,42.1281082 86.0802837,49.2254649 77.3550597,49.2254649 L77.3550597,52.7415939 C84.8512459,52.7415939 91.3512625,48.4444824 94.5597805,42.1932068 L96.6937694,42.1932068 C101.541004,42.1932068 105.484092,46.1362944 105.484092,50.9835294 C105.484092,55.8307644 101.541004,59.7739324 96.6937694,59.7739324 L96.6934077,59.7739324 Z" id="Shape" fill="#2E79A6" fill-rule="nonzero"></path>
                    <path d="M63.2901819,58.0160688 C63.2901819,53.1688337 59.3470944,49.2257462 54.4998594,49.2257462 C49.6526243,49.2257462 45.7095368,53.1688337 45.7095368,58.0160688 C45.7095368,60.8092817 47.0437771,63.272983 49.0812031,64.8851784 L47.1795198,77.3547784 L61.820882,77.3547784 L59.918395,64.8851784 C61.9559416,63.2731036 63.2901819,60.8094826 63.2901819,58.0160688 L63.2901819,58.0160688 Z M54.4998594,52.7418752 C57.4077985,52.7418752 59.7740529,55.1081296 59.7740529,58.0160688 C59.7740529,60.9240079 57.4077985,63.2902623 54.4998594,63.2902623 C51.5919202,63.2902623 49.2256658,60.9240079 49.2256658,58.0160688 C49.2256658,55.1081296 51.5919202,52.7418752 54.4998594,52.7418752 Z M57.7278667,73.8386494 L51.2724547,73.8386494 L52.3885143,66.5214844 C53.0689757,66.6902265 53.7682835,66.8063913 54.4997991,66.8063913 C55.2313147,66.8063913 55.9305823,66.6902345 56.6110839,66.5214844 L57.7278667,73.8386494 Z" id="Shape" fill="#0D972C" fill-rule="nonzero"></path>
                </g>
                <path d="M97.5,0 C83.4167389,0 72,11.6405965 72,26 C72,40.3594035 83.4167389,52 97.5,52 C111.583261,52 123,40.3594035 123,26 C123,19.1043713 120.313401,12.4911695 115.531223,7.61522369 C110.749045,2.73927785 104.26302,0 97.5,0 Z M112.175957,21.6322188 L96.9204399,36.2988027 C95.9169399,37.2638591 94.366698,37.2285905 93.4040432,36.2188032 L85.7762846,28.2188483 C85.1153226,27.5493202 84.8502427,26.55785 85.0829286,25.6255101 C85.3156145,24.6931702 86.0098548,23.9650544 86.8988178,23.7210146 C87.7877808,23.4769748 88.733123,23.7549893 89.3715015,24.4482029 L95.2779292,30.6428346 L108.738381,17.7015743 C109.407856,17.0575472 110.354075,16.8370299 111.220608,17.1230891 C112.08714,17.4091484 112.742338,18.158325 112.939396,19.0884114 C113.136453,20.0184977 112.845432,20.9881917 112.175957,21.6322188 L112.175957,21.6322188 Z" id="Shape" fill="#0D972C" fill-rule="nonzero"></path>
            </g>
        </g>
    </g>
</svg>