<?xml version="1.0" encoding="UTF-8"?>
<svg width="20px" height="20px" viewBox="0 0 20 20" version="1.1" xmlns="http://www.w3.org/2000/svg" xmlns:xlink="http://www.w3.org/1999/xlink">
    <title>Package Management</title>
    <g id="full-design" stroke="none" stroke-width="1" fill="none" fill-rule="evenodd">
        <g id="mockup-07" transform="translate(-11.000000, -184.000000)" fill="#2E79A6" fill-rule="nonzero">
            <g id="Group" transform="translate(0.000000, 121.000000)">
                <g id="Group" transform="translate(11.000000, 63.000000)">
                    <path d="M17.2729056,0 C17.7747683,0.000501106638 18.1814833,0.407212325 18.1819844,0.909070248 L18.1819844,0.909070248 L18.1819844,11.9030931 C18.6224715,11.7739432 19.0942471,11.9619314 19.3251964,12.3586282 L19.3251964,12.3586282 L19.8660983,13.2956524 C20.1401936,13.7727156 19.9767283,14.3816093 19.5005577,14.6572578 L19.5005577,14.6572578 L19.1363353,14.8682984 C19.148171,14.9845887 19.1541633,15.1013996 19.1542896,15.2182905 C19.1542896,15.3296971 19.1483351,15.4455581 19.136108,15.5682825 L19.136108,15.5682825 L19.5006032,15.7793232 C19.7292754,15.9110981 19.8962174,16.1283332 19.9646879,16.3832186 C20.0349987,16.638804 19.9994131,16.9119358 19.8659619,17.1409741 L19.8659619,17.1409741 L19.3250601,18.0773164 C19.0485469,18.5492585 18.4452596,18.7132222 17.9678964,18.4461717 L17.9678964,18.4461717 L17.6429462,18.2562214 C17.62169,18.2433457 17.5955942,18.241289 17.5725835,18.2506761 C17.3958352,18.3734245 17.2084357,18.4800765 17.0126364,18.5693507 C16.9971388,18.5881378 16.9892987,18.6120797 16.9906821,18.6363946 L16.9906821,18.6363946 L16.9906821,19.0045681 C16.9900559,19.5540704 16.5447483,19.9993738 15.9952409,20 L15.9952409,20 L14.9134372,20 C14.3639297,19.9993738 13.9186221,19.5540704 13.9179959,19.0045681 L13.9179959,19.0045681 L13.9179959,18.6363946 C13.9204719,18.6087467 13.9085769,18.5817643 13.8864963,18.5649417 C13.695831,18.4774524 13.5132091,18.3734043 13.3407309,18.2539942 C13.3163744,18.2414658 13.2872297,18.2426392 13.2639592,18.2570851 L13.2639592,18.2570851 L12.9478725,18.4421718 C12.5131877,18.6874594 11.9643546,18.5766178 11.6589352,18.1818595 L11.6589352,18.1818595 L0.909078766,18.1818595 C0.407216141,18.1813584 0.000501111334,17.7746472 0,17.2727893 L0,17.2727893 L0,0.909524784 C0.000501111334,0.407666861 0.407216141,0.000955641762 0.909078766,0.000454535124 L0.909078766,0.000454535124 Z M15.9952409,11.3451601 L14.9134372,11.3451601 C14.8903862,11.3447084 14.8681346,11.3536502 14.8518315,11.3699533 C14.8355283,11.3862563 14.8265863,11.4085076 14.8270747,11.4315584 L14.8270747,11.4315584 L14.8270747,11.7997318 C14.8302857,12.1782364 14.6164967,12.5251568 14.2769457,12.6924388 C14.1276828,12.7605944 13.9848388,12.8420101 13.8501332,12.935706 C13.5377849,13.1456317 13.1326197,13.1574603 12.8085562,12.9661144 L12.8085562,12.9661144 L12.4882877,12.7785732 C12.4458026,12.7566582 12.3935924,12.7724842 12.3704257,12.8142997 L12.3704257,12.8142997 L11.8297965,13.7500057 C11.8060648,13.7927864 11.8214613,13.8467043 11.8642052,13.8705029 L11.8642052,13.8705029 L12.4914695,14.234131 C12.6552683,14.3290598 12.7430754,14.5155735 12.7118757,14.7023022 C12.6812788,14.8725719 12.6651005,15.0451191 12.6635127,15.2181087 C12.665299,15.3911482 12.6814757,15.5637393 12.7118757,15.734097 C12.7430754,15.9208257 12.6552683,16.1073393 12.4914695,16.2022681 L12.4914695,16.2022681 L11.8642052,16.5658962 C11.821598,16.5896008 11.8062079,16.6433133 11.8297965,16.6859844 L11.8297965,16.6859844 L12.3688348,17.6183723 C12.3810468,17.639917 12.4013405,17.6557076 12.4252257,17.6622504 C12.449111,17.6687932 12.4746189,17.6655488 12.4961058,17.6532352 L12.4961058,17.6532352 L12.8070562,17.4714211 C12.9599993,17.382497 13.1337246,17.3355654 13.3106404,17.3353787 C13.50506,17.3346586 13.6950458,17.3934397 13.8550877,17.5038295 C13.9854671,17.5942252 14.1235247,17.6730103 14.2676731,17.7392787 C14.6117297,17.9051729 14.8296426,18.2542125 14.8276201,18.6361674 L14.8276201,18.6361674 L14.8276201,19.0043408 C14.8271318,19.0273916 14.8360737,19.0496429 14.8523769,19.0659459 C14.8686801,19.0822489 14.8909316,19.0911908 14.9139826,19.090747 L14.9139826,19.090747 L15.9957863,19.090747 C16.0188526,19.0912431 16.0411347,19.082318 16.0574495,19.0660034 C16.0737642,19.0496888 16.0826894,19.0274068 16.0821488,19.0043408 L16.0821488,19.0043408 L16.0821488,18.6361674 C16.0791489,18.2578856 16.2928377,17.9112361 16.6321415,17.7439604 C16.7813648,17.6757274 16.924202,17.5943155 17.058954,17.5006932 C17.3714359,17.2909239 17.7765729,17.2790987 18.1007582,17.4702848 L18.1007582,17.4702848 L18.4205721,17.6574169 C18.4630548,17.6782221 18.5143936,17.6628384 18.5384342,17.6220995 L18.5384342,17.6220995 L19.0793361,16.6855299 C19.1027321,16.6428654 19.0871261,16.5893132 19.0444729,16.5658962 L19.0444729,16.5658962 L18.4172085,16.2022681 C18.2535497,16.1073705 18.1657813,15.9210275 18.1968479,15.7344151 C18.2270225,15.563878 18.243122,15.3911483 18.2449836,15.2179723 C18.2432973,15.0448475 18.2271964,14.8721638 18.1968479,14.7017113 C18.1657813,14.5150989 18.2535497,14.328756 18.4172085,14.2338583 L18.4172085,14.2338583 L19.0444729,13.8702302 C19.0649606,13.8588803 19.0800977,13.8398533 19.0865512,13.8173385 C19.0930048,13.7948238 19.0902091,13.7706672 19.0788815,13.7501875 L19.0788815,13.7501875 L18.5379797,12.8133452 C18.5140718,12.77139 18.4609785,12.7562928 18.4185722,12.7793914 L18.4185722,12.7793914 L18.1020764,12.9647053 C18.0219514,13.0115157 17.9357651,13.0470758 17.8459434,13.0703848 C17.8421708,13.0712484 17.8385345,13.0710211 17.8347618,13.0717938 L17.8347618,13.0717938 C17.5614351,13.1377117 17.2811457,13.0861884 17.0548176,12.9327515 C16.9242487,12.8420163 16.7859615,12.7629263 16.6415504,12.6963933 C16.2973525,12.5307751 16.0793577,12.181693 16.0816034,11.7997318 L16.0816034,11.7997318 L16.0816034,11.4315584 C16.0818492,11.4085794 16.0728292,11.3864698 16.0565795,11.3702203 C16.0403298,11.3539708 16.0182201,11.3449509 15.9952409,11.3451601 L15.9952409,11.3451601 Z M15.4545663,13.1406104 C16.6012156,13.1420129 17.5304088,14.0711974 17.5318113,15.217836 C17.5318113,16.3650559 16.601797,17.2950615 15.4545663,17.2950615 C14.3073356,17.2950615 13.3773213,16.3650559 13.3773213,15.217836 C13.3773213,14.070616 14.3073356,13.1406104 15.4545663,13.1406104 Z M6.36286956,0.909524784 L0.909078766,0.909070248 L0.909078766,17.272562 L11.1182606,17.2721075 L11.0421707,17.1398377 C10.768442,16.6628275 10.9320746,16.0542766 11.4081203,15.7788687 L11.4081203,15.7788687 L11.77257,15.567828 C11.7603429,15.4455126 11.7543884,15.3296971 11.7543884,15.217836 C11.7545573,15.1009404 11.7606255,14.9841278 11.77257,14.8678439 L11.77257,14.8678439 L11.4082567,14.6569851 C10.9321859,14.3811493 10.7687611,13.7723049 11.0427161,13.2951524 L11.0427161,13.2951524 L11.583618,12.35881 C11.8591849,11.8821823 12.4684715,11.7184063 12.9458725,11.9926365 L12.9458725,11.9926365 L13.266141,12.180405 C13.2873465,12.1929597 13.3131885,12.1949256 13.3360491,12.1857231 C13.5129895,12.0628579 13.7005503,11.956042 13.8964962,11.8665485 C13.9117486,11.8477389 13.9194172,11.8239064 13.9179959,11.7997318 L13.9179959,11.7997318 L13.9179959,11.4315584 C13.9186471,10.8820665 14.3639401,10.4367777 14.9134372,10.4361265 L14.9134372,10.4361265 L15.9952409,10.4361265 C16.5447379,10.4367777 16.9900309,10.8820665 16.9906821,11.4315584 L16.9906821,11.4315584 L16.9906821,11.7997318 C16.9882744,11.8274091 17.0002357,11.8543861 17.0223635,11.8711847 C17.103817,11.907593 17.1865886,11.9495466 17.2729511,11.9981364 L17.2729511,11.9981364 L17.2729511,0.910615668 L11.8177967,0.910161133 L11.8177967,6.78125497 C11.817788,7.13071373 11.6174601,7.44923249 11.3024816,7.60059909 C10.9875031,7.75196569 10.6136396,7.70938138 10.340771,7.49105702 L10.340771,7.49105702 L9.09078766,6.49076157 L7.83984983,7.49110247 C7.67950899,7.62052805 7.4797348,7.69124065 7.27367557,7.69150701 C7.13670924,7.69124766 7.00155598,7.66017824 6.87822631,7.60059999 C6.56208789,7.45048183 6.36124071,7.13112754 6.36286956,6.78116406 L6.36286956,6.78116406 L6.36286956,0.909524784 Z M15.4545663,14.0499534 C14.8094059,14.0499534 14.2864001,14.5729543 14.2864001,15.2181087 C14.2864001,15.863263 14.8094059,16.3862639 15.4545663,16.3862639 L15.4545663,16.3862639 C16.0993192,16.3852651 16.6218558,15.8628554 16.6227325,15.2181087 C16.6227325,14.5729543 16.0997267,14.0499534 15.4545663,14.0499534 Z M5.90855744,14.545124 C6.15959261,14.545124 6.36309683,14.7486263 6.36309683,14.9996591 C6.36309683,15.2506919 6.15959261,15.4541942 5.90855744,15.4541942 L5.90855744,15.4541942 L3.18132114,15.4541942 C2.93028597,15.4541942 2.72678176,15.2506919 2.72678176,14.9996591 C2.72678176,14.7486263 2.93028597,14.545124 3.18132114,14.545124 L3.18132114,14.545124 Z M7.72671497,12.2724484 C7.97775014,12.2724484 8.18125436,12.4759507 8.18125436,12.7269835 C8.18125436,12.9780163 7.97775014,13.1815186 7.72671497,13.1815186 L7.72671497,13.1815186 L3.18132114,13.1815186 C2.93028597,13.1815186 2.72678176,12.9780163 2.72678176,12.7269835 C2.72678176,12.4759507 2.93028597,12.2724484 3.18132114,12.2724484 L3.18132114,12.2724484 Z M7.27240286,0.909797505 L7.27240286,6.7809368 L8.5228407,5.7806868 C8.85419018,5.51333095 9.32715788,5.51333095 9.65850735,5.7806868 L9.65850735,5.7806868 L10.9113997,6.78316402 L10.9089452,0.910115679 L7.27240286,0.909797505 Z" id="Combined-Shape"></path>
                </g>
            </g>
        </g>
    </g>
</svg>