<?xml version="1.0" encoding="UTF-8"?>
<svg width="18px" height="24px" viewBox="0 0 18 24" version="1.1" xmlns="http://www.w3.org/2000/svg" xmlns:xlink="http://www.w3.org/1999/xlink">
    <title>lock</title>
    <g id="SIgn-in-" stroke="none" stroke-width="1" fill="none" fill-rule="evenodd">
        <g id="mockup-04" transform="translate(-765.000000, -426.000000)" fill="#2E79A6" fill-rule="nonzero">
            <g id="Group-6" transform="translate(730.000000, 147.000000)">
                <g id="Group" transform="translate(24.000000, 239.000000)">
                    <g id="lock" transform="translate(11.000000, 40.000000)">
                        <path d="M7.818375,16.6084219 L7.50295312,19.4448281 C7.48734375,19.5859219 7.53271875,19.7275312 7.62745312,19.8335156 C7.7221875,19.9394531 7.8579375,20.0000156 8.00001562,20.0000156 L10.0000312,20.0000156 C10.1421094,20.0000156 10.2778594,19.9394531 10.3725937,19.8335156 C10.4673281,19.7275781 10.51275,19.5859687 10.4970937,19.4448281 L10.1816719,16.6084219 C10.693875,16.2358594 11.0000156,15.6465 11.0000156,15 C11.0000156,13.8969844 10.1030625,12.9999844 9,12.9999844 C7.8969375,12.9999844 6.99998437,13.8969844 6.99998437,15 C6.99998437,15.6465 7.30617187,16.2358594 7.818375,16.6084219 Z M9,14.0000156 C9.55125,14.0000156 9.99998437,14.44875 9.99998437,15 C9.99998437,15.3832969 9.78220312,15.7265625 9.431625,15.8964844 C9.24070312,15.98925 9.12890625,16.1914219 9.15234375,16.4018438 L9.44142187,18.9999844 L8.558625,18.9999844 L8.84770312,16.4018438 C8.87114062,16.191375 8.75934375,15.98925 8.56842187,15.8964844 C8.21784375,15.7265625 8.0000625,15.3832969 8.0000625,15 C8.00001562,14.44875 8.44875,14.0000156 9,14.0000156 Z" id="Shape"></path>
                        <path d="M17.4999844,9 L15.9999844,9 L15.9999844,6.99998438 C15.9999844,3.14015625 12.859875,0 9,0 C5.140125,0 2.00001563,3.14015625 2.00001563,6.99998438 L2.00001563,9 L0.500015625,9 C0.223640625,9 0,9.22364063 0,9.50001563 L0,22.0000313 C0,23.1030469 0.896953125,24 2.00001563,24 L16.0000312,24 C17.1030469,24 18,23.1030469 18,21.9999844 L18,9.50001563 C18,9.22364063 17.7763594,9 17.4999844,9 Z M3,6.99998438 C3,3.69140625 5.69142187,0.999984375 9,0.999984375 C12.3085781,0.999984375 15,3.69140625 15,6.99998438 L15,9 L14.0000156,9 L14.0000156,6.99998438 C14.0000156,4.243125 11.7568594,1.99996875 9,1.99996875 C6.24314062,1.99996875 3.99998437,4.24317187 3.99998437,6.99998438 L3.99998437,9 L3,9 L3,6.99998438 Z M12.9999844,6.99998438 L12.9999844,9 L5.00001562,9 L5.00001562,6.99998438 C5.00001562,4.79442188 6.7944375,3 9,3 C11.2055625,3 12.9999844,4.79442188 12.9999844,6.99998438 Z M17.0000156,21.9999844 C17.0000156,22.5512344 16.5512813,22.9999688 16.0000312,22.9999688 L2.00001562,22.9999688 C1.44876562,22.9999688 1.00003125,22.5512344 1.00003125,21.9999844 L1.00003125,9.99998438 L17.0000156,9.99998438 L17.0000156,21.9999844 L17.0000156,21.9999844 Z" id="Shape"></path>
                    </g>
                </g>
            </g>
        </g>
    </g>
</svg>