<?xml version="1.0" encoding="UTF-8"?>
<svg width="24px" height="28px" viewBox="0 0 24 28" version="1.1" xmlns="http://www.w3.org/2000/svg" xmlns:xlink="http://www.w3.org/1999/xlink">
    <title>PDF</title>
    <g id="full-design" stroke="none" stroke-width="1" fill="none" fill-rule="evenodd">
        <g id="mockup-14-copy-5" transform="translate(-787.000000, -180.000000)" fill-rule="nonzero">
            <g id="PDF" transform="translate(787.000000, 180.000000)">
                <path d="M23.8559498,5.93794221 L18.095963,0.144888049 C18.0093931,0.0511398816 17.8872485,-0.0014444986 17.7599637,3.02046471e-05 L3.7725215,3.02046471e-05 C3.28202296,0.00264788037 2.81208484,0.199844823 2.46516907,0.548548063 C2.11845626,0.897466473 1.92238631,1.37011349 1.91981351,1.86340584 L1.91981351,11.1036031 C1.91981351,11.3701939 2.13474331,11.5863576 2.39981241,11.5863576 C2.66488152,11.5863576 2.87981132,11.3701939 2.87981132,11.1036031 L2.87981132,1.86340584 C2.87981132,1.62526166 2.97388013,1.39703188 3.14123792,1.22848711 C3.30880965,1.06016854 3.53573667,0.965559687 3.77253247,0.965559687 L17.2799758,0.965559687 L17.2799758,6.27585933 C17.2799758,6.40387479 17.3305474,6.52672064 17.4205469,6.61723574 C17.5105464,6.70775083 17.63269,6.75861384 17.7599747,6.75861384 L23.0399626,6.75861384 L23.0399626,26.1366559 C23.0399626,26.3748 22.9458938,26.6030298 22.778536,26.7715746 C22.6109643,26.9398932 22.3840373,27.034502 22.1472415,27.034502 L3.77288355,27.034502 C3.53609873,27.034502 3.3091717,26.9398932 3.141589,26.7715746 C2.97423121,26.6030409 2.8801624,26.3748111 2.8801624,26.1366559 L2.8801624,23.6551873 C2.8801624,23.3885965 2.66523261,23.1724328 2.4001635,23.1724328 C2.13509439,23.1724328 1.9201646,23.3885965 1.9201646,23.6551873 L1.9201646,26.1366559 C1.92273602,26.6299703 2.11880734,27.1026063 2.46552015,27.4515136 C2.8124469,27.8002169 3.28239599,27.9974124 3.77287258,28 L22.1472305,28 C22.637729,27.9974138 23.1076671,27.8002169 23.4545829,27.4515136 C23.8012957,27.1025952 23.9973657,26.6299482 23.9999699,26.1366559 L23.9999699,6.27585933 C24.0014385,6.14784387 23.9491529,6.02499802 23.8559388,5.93793117 L23.8559498,5.93794221 Z M18.2396883,1.6511373 L22.3580241,5.79311585 L18.2396883,5.79311585 L18.2396883,1.6511373 Z" id="Shape" fill="#3492C9"></path>
                <path d="M9.75385636,15.650963 L8.90916801,15.650963 L8.90916801,19.0979406 L9.86916581,19.0979406 L9.86895154,19.0977251 C10.3733783,19.1313452 10.872451,18.9766061 11.2706032,18.663246 C11.6072442,18.3248875 11.782101,17.8567977 11.7506021,17.3792293 C11.7218877,16.2206185 11.0402586,15.6510234 9.75391638,15.6510234 L9.75385636,15.650963 Z" id="Path" fill="#DA1E28"></path>
                <path d="M4.86774185,15.6311011 L4.00374383,15.6311011 L4.00374383,17.6489598 L4.96374163,17.6489598 C5.30681193,17.6935713 5.65329433,17.5959429 5.92373943,17.3787055 C6.13073689,17.1683625 6.24495469,16.8830187 6.24045093,16.5868778 C6.26595066,16.2991671 6.14273961,16.0183309 5.91409556,15.8435462 C5.59223847,15.6745821 5.22947999,15.6010931 4.86775282,15.6310459 L4.86774185,15.6311011 Z" id="Path" fill="#DA1E28"></path>
                <path d="M20.1602625,20.6423688 L20.1602625,14.1155278 C20.1628039,13.6997962 19.9997319,13.3004727 19.7076621,13.0064614 C19.4153785,12.7127149 19.0183289,12.5487053 18.6049264,12.5512627 L1.55536544,12.5512627 C1.14200684,12.5487066 0.744962721,12.7127149 0.452629677,13.0064614 C0.160559946,13.300423 -0.00251350919,13.699752 2.92975267e-05,14.1155278 L2.92975267e-05,20.6423688 L2.92975267e-05,20.6421533 C-0.00251213776,21.0578849 0.160559946,21.4572084 0.452629677,21.7512197 C0.74491335,22.0449662 1.14196295,22.2089758 1.55536544,22.2064184 L18.6049264,22.2064184 C19.018285,22.2089745 19.4153291,22.0449662 19.7076621,21.7512197 C19.9997319,21.4572581 20.1628053,21.0579291 20.1602625,20.6421533 L20.1602625,20.6423688 Z M6.52826376,17.9969293 C6.045906,18.31611 5.47204675,18.4654604 4.89626749,18.4217091 L4.00357925,18.4217091 L4.00357925,19.8988276 L3.15867148,19.8990431 L3.15867148,14.8589756 L4.87701268,14.8589756 C5.4654639,14.8055278 6.05364084,14.9628533 6.53791859,15.3031539 C6.91334904,15.6466875 7.10832185,16.1462364 7.06591738,16.6548665 C7.10598879,17.1621891 6.9069198,17.6591614 6.52827473,17.9968689 L6.52826376,17.9969293 Z M11.8755612,19.2135258 C11.2738346,19.7133064 10.5030386,19.9590091 9.72500157,19.8990924 L8.06431509,19.8990924 L8.06431509,14.8590249 L9.7826563,14.8590249 C10.5298637,14.8094562 11.2678552,15.0476026 11.8466516,15.525171 C12.3450769,15.9958539 12.6118521,16.6635337 12.5763048,17.3501485 C12.609519,18.0419496 12.355593,18.7167576 11.8756161,19.2134706 L11.8755612,19.2135258 Z M16.9922398,15.6508527 L14.5059003,15.6508527 L14.5059003,17.0411305 L16.7235501,17.0411305 L16.7235501,17.8618132 L14.5059003,17.8618132 L14.5059003,19.9376576 L13.661212,19.9376576 L13.6609977,14.8590249 L17.0016803,14.8590249 L16.9922398,15.6508527 Z" id="Shape" fill="#DA1E28"></path>
            </g>
        </g>
    </g>
</svg>