<?xml version="1.0" encoding="UTF-8"?>
<svg width="10px" height="6px" viewBox="0 0 10 6" version="1.1" xmlns="http://www.w3.org/2000/svg" xmlns:xlink="http://www.w3.org/1999/xlink">
    <title>Path</title>
    <g id="full-design" stroke="none" stroke-width="1" fill="none" fill-rule="evenodd">
        <g id="SearchLite-Main-Dashboard-Copy-10" transform="translate(-177.000000, -375.000000)" fill="#2E79A6" fill-rule="nonzero">
            <g id="Group-4" transform="translate(64.000000, 131.000000)">
                <path d="M113.718359,244 C113.528131,243.998774 113.345299,244.077364 113.210436,244.218354 C113.075567,244.359216 112.999881,244.550807 113,244.750555 C113.00012,244.950297 113.076164,245.141759 113.211272,245.28237 L117.496508,249.781926 C117.630303,249.92166 117.81132,250 118,250 C118.188669,250 118.369687,249.92166 118.503478,249.781926 L122.788715,245.28237 C122.923225,245.142386 122.99927,244.951942 123,244.753062 C123.000823,244.554198 122.926335,244.363111 122.792899,244.22189 C122.659582,244.080652 122.47821,244.000804 122.288802,244 L113.718359,244 Z" id="Path"></path>
            </g>
        </g>
    </g>
</svg>