<?xml version="1.0" encoding="UTF-8"?>
<svg width="16px" height="16px" viewBox="0 0 16 16" version="1.1" xmlns="http://www.w3.org/2000/svg" xmlns:xlink="http://www.w3.org/1999/xlink">
    <title>noun_Reset Password_1037766</title>
    <g id="full-design" stroke="none" stroke-width="1" fill="none" fill-rule="evenodd">
        <g id="mockup-10-copy" transform="translate(-1166.000000, -443.000000)" fill="#2E79A6" fill-rule="nonzero">
            <g id="form" transform="translate(715.000000, 94.000000)">
                <g id="Group-6" transform="translate(33.000000, 146.000000)">
                    <g id="noun_Reset-Password_1037766" transform="translate(426.000000, 211.000000) scale(-1, 1) rotate(-180.000000) translate(-426.000000, -211.000000) translate(418.000000, 203.000000)">
                        <path d="M6.46044444,8.89299516 C6.54275556,9.03549061 6.69208889,9.11508906 6.84568889,9.11508906 C6.92106667,9.11508906 6.99751111,9.09607782 7.06755556,9.05556789 L7.55555556,8.77395283 L7.55555556,9.33718296 C7.55555556,9.5825523 7.75448889,9.78137076 8,9.78137076 C8.24551111,9.78137076 8.44444444,9.5825523 8.44444444,9.33718296 L8.44444444,8.77395283 L8.93244444,9.05556789 C9.00248889,9.09607782 9.07893333,9.11508906 9.15431111,9.11508906 C9.30791111,9.11508906 9.45742222,9.03549061 9.53955556,8.89299516 C9.66222222,8.68067339 9.58951111,8.40883045 9.37688889,8.28623462 L8.88888889,8.00461955 L9.37688889,7.72300449 C9.58951111,7.60040865 9.66222222,7.32856572 9.53955556,7.11624395 C9.41688889,6.90392218 9.14506667,6.83072003 8.93244444,6.95367121 L8.44444444,7.23528628 L8.44444444,6.67205615 C8.44444444,6.4266868 8.24551111,6.22786834 8,6.22786834 C7.75448889,6.22786834 7.55555556,6.4266868 7.55555556,6.67205615 L7.55555556,7.23528628 L7.06755556,6.95367121 C6.85493333,6.83072003 6.58293333,6.90392218 6.46044444,7.11624395 C6.33777778,7.32856572 6.41048889,7.60040865 6.62311111,7.72300449 L7.11111111,8.00461955 L6.62311111,8.28623462 C6.41048889,8.40883045 6.3376,8.68067339 6.46044444,8.89299516 Z" id="Path"></path>
                        <path d="M2.016,8.89299516 C2.09831111,9.03549061 2.24764444,9.11508906 2.40124444,9.11508906 C2.47662222,9.11508906 2.55306667,9.09607782 2.62311111,9.05556789 L3.11111111,8.77395283 L3.11111111,9.33718296 C3.11111111,9.5825523 3.31004444,9.78137076 3.55555556,9.78137076 C3.80106667,9.78137076 4,9.5825523 4,9.33718296 L4,8.77395283 L4.488,9.05556789 C4.55804444,9.09607782 4.63448889,9.11508906 4.70986667,9.11508906 C4.86346667,9.11508906 5.01297778,9.03549061 5.09511111,8.89299516 C5.21777778,8.68067339 5.14506667,8.40883045 4.93244444,8.28623462 L4.44444444,8.00461955 L4.93244444,7.72300449 C5.14506667,7.60040865 5.21777778,7.32856572 5.09511111,7.11624395 C4.97244444,6.90392218 4.70044444,6.83072003 4.488,6.95367121 L4,7.23528628 L4,6.67205615 C4,6.4266868 3.80106667,6.22786834 3.55555556,6.22786834 C3.31004444,6.22786834 3.11111111,6.4266868 3.11111111,6.67205615 L3.11111111,7.23528628 L2.62311111,6.95367121 C2.41031111,6.83072003 2.13848889,6.90392218 2.016,7.11624395 C1.89333333,7.32856572 1.96604444,7.60040865 2.17866667,7.72300449 L2.66666667,8.00461955 L2.17866667,8.28623462 C1.96604444,8.40883045 1.89315556,8.68067339 2.016,8.89299516 Z" id="Path"></path>
                        <path d="M10.9048889,8.89299516 C10.9872,9.03549061 11.1365333,9.11508906 11.2901333,9.11508906 C11.3655111,9.11508906 11.4419556,9.09607782 11.512,9.05556789 L12,8.77395283 L12,9.33718296 C12,9.5825523 12.1989333,9.78137076 12.4444444,9.78137076 C12.6899556,9.78137076 12.8888889,9.5825523 12.8888889,9.33718296 L12.8888889,8.77395283 L13.3768889,9.05556789 C13.4469333,9.09607782 13.5233778,9.11508906 13.5987556,9.11508906 C13.7523556,9.11508906 13.9018667,9.03549061 13.984,8.89299516 C14.1066667,8.68067339 14.0339556,8.40883045 13.8213333,8.28623462 L13.3333333,8.00461955 L13.8213333,7.72300449 C14.0339556,7.60040865 14.1066667,7.32856572 13.984,7.11624395 C13.8613333,6.90392218 13.5893333,6.83072003 13.3768889,6.95367121 L12.8888889,7.23528628 L12.8888889,6.67205615 C12.8888889,6.4266868 12.6899556,6.22786834 12.4444444,6.22786834 C12.1989333,6.22786834 12,6.4266868 12,6.67205615 L12,7.23528628 L11.512,6.95367121 C11.2992,6.83072003 11.0273778,6.90392218 10.9048889,7.11624395 C10.7822222,7.32856572 10.8549333,7.60040865 11.0675556,7.72300449 L11.5555556,8.00461955 L11.0675556,8.28623462 C10.8549333,8.40883045 10.7820444,8.68067339 10.9048889,8.89299516 Z" id="Path"></path>
                        <path d="M8,0.00923910629 C6.20302222,0.00923910629 4.49777778,0.599298183 3.10186667,1.68453782 L3.10186667,0.444187803 C3.10186667,0.19881846 2.90293333,0 2.65742222,0 C2.41191111,0 2.21297778,0.19881846 2.21297778,0.444187803 L2.21297778,2.66512682 C2.21297778,2.6752543 2.21511111,2.68502643 2.21582222,2.69515391 C2.21688889,2.70972327 2.2176,2.72411496 2.21991111,2.73832897 C2.22062222,2.74294852 2.2208,2.74756807 2.22168889,2.75200995 C2.22364444,2.76231511 2.22755556,2.77173189 2.2304,2.7816817 C2.23395556,2.79465198 2.23733333,2.80779994 2.24195556,2.82041487 C2.24373333,2.8252121 2.24497778,2.830187 2.24693333,2.83498423 C2.25102222,2.84475636 2.25671111,2.85364012 2.26151111,2.8630569 C2.26737778,2.87496113 2.27324444,2.88668769 2.28017778,2.89788122 C2.28284444,2.9023231 2.2848,2.90694266 2.28782222,2.91138453 C2.29333333,2.91973526 2.30026667,2.92666459 2.30631111,2.93465997 C2.31502222,2.94603118 2.32373333,2.95722471 2.33351111,2.96770755 C2.34293333,2.97783503 2.35324444,2.98707413 2.36373333,2.99631324 C2.37475556,3.00608537 2.3856,3.01550215 2.39768889,3.02420824 C2.40231111,3.02758406 2.4064,3.03149292 2.4112,3.03469107 C2.41902222,3.04002132 2.42773333,3.04339715 2.43573333,3.04819438 C2.44746667,3.05494603 2.45902222,3.06169769 2.47146667,3.06738329 C2.47697778,3.06987074 2.48195556,3.07306889 2.48764444,3.07537867 C2.49777778,3.07964287 2.50844444,3.08177497 2.51875556,3.08532848 C2.52693333,3.0879936 2.53422222,3.09208013 2.54257778,3.09438991 L4.68906667,3.66916892 C4.72764444,3.67947408 4.76622222,3.68444899 4.80426667,3.68444899 C5.00053333,3.68444899 5.18008889,3.55350242 5.23342222,3.35503931 C5.29688889,3.1180207 5.15626667,2.87442811 4.91911111,2.81082041 L3.56675556,2.44871852 C4.82186667,1.44449873 6.36853333,0.897614712 8,0.897614712 C11.9210667,0.897614712 15.1111111,4.08581708 15.1111111,8.00461955 C15.1111111,11.923422 11.9210667,15.1116244 8,15.1116244 C4.07893333,15.1116244 0.888888889,11.923422 0.888888889,8.00461955 C0.888888889,7.75925021 0.689955556,7.56043175 0.444444444,7.56043175 C0.198933333,7.56043175 0,7.75925021 0,8.00461955 C0,12.4132723 3.5888,16 8,16 C12.4112,16 16,12.4132723 16,8.00461955 C16,3.59596677 12.4112,0.00923910629 8,0.00923910629 Z" id="Path"></path>
                    </g>
                </g>
            </g>
        </g>
    </g>
</svg>