<?xml version="1.0" encoding="UTF-8"?>
<svg width="20px" height="20px" viewBox="0 0 20 20" version="1.1" xmlns="http://www.w3.org/2000/svg" xmlns:xlink="http://www.w3.org/1999/xlink">
    <g id="SIgn-in-" stroke="none" stroke-width="1" fill="none" fill-rule="evenodd">
        <g id="mockup-06" transform="translate(-754.000000, -489.000000)">
            <g id="Group-6" transform="translate(730.000000, 147.000000)">
                <g id="Group-7" transform="translate(24.000000, 342.000000)">
                    <rect id="Rectangle" fill="#3492C9" x="0" y="0" width="20" height="20" rx="4"></rect>
                    <path d="M15.688313,7.73709185 L9.68831299,13.2370919 C9.29363608,13.59899 8.68392546,13.5857642 8.30531299,13.2070919 L5.30531299,10.2070919 C5.04535641,9.95601738 4.9411004,9.58421396 5.03261584,9.23458453 C5.12413128,8.8849551 5.39717624,8.61191014 5.74680567,8.5203947 C6.0964351,8.42887925 6.46823852,8.53313527 6.71931299,8.79309185 L9.04231299,11.1160919 L14.336313,6.26309185 C14.5996177,6.02158031 14.9717662,5.93888585 15.3125737,6.04615868 C15.6533812,6.1534315 15.911071,6.43437432 15.9885737,6.78315868 C16.0660765,7.13194304 15.9516177,7.49558031 15.688313,7.73709185 L15.688313,7.73709185 Z" id="Path" fill="#FFFFFF" fill-rule="nonzero"></path>
                </g>
            </g>
        </g>
    </g>
</svg>