<?xml version="1.0" encoding="UTF-8"?>
<svg width="22px" height="24px" viewBox="0 0 22 24" version="1.1" xmlns="http://www.w3.org/2000/svg" xmlns:xlink="http://www.w3.org/1999/xlink">
    <title>Configuration</title>
    <g id="full-design" stroke="none" stroke-width="1" fill="none" fill-rule="evenodd">
        <g id="mockup-16" transform="translate(-9.000000, -184.000000)" fill="#2E79A6" fill-rule="nonzero" stroke="#FFFFFF">
            <g id="noun_configuration_3825871" transform="translate(9.750000, 185.000000)">
                <path d="M14.6461539,6.93491019 C15.1421819,6.94421466 15.5696974,6.59408267 15.6492308,6.11339768 C15.6865792,5.84178502 15.6023907,5.5675936 15.4183581,5.36147421 C15.2343255,5.15535482 14.9684468,5.03746551 14.6892308,5.03817951 L5.23692312,5.03817951 C4.89174959,5.03817951 4.57279609,5.21893985 4.40020932,5.51236461 C4.22762254,5.80578937 4.22762254,6.16730359 4.40020932,6.46072835 C4.57279609,6.75415311 4.89174959,6.93491021 5.23692312,6.93491019 L14.6461539,6.93491019 Z M5.21846158,9.47193414 C4.68486955,9.47193414 4.25230774,9.89653104 4.25230774,10.4202979 C4.25230774,10.9440647 4.68486955,11.3686616 5.21846158,11.3686616 L12.2769231,11.3686616 C12.8105151,11.3686616 13.2430769,10.9440647 13.2430769,10.4202979 C13.2430769,9.89653104 12.8105151,9.47193414 12.2769231,9.47193414 L5.21846158,9.47193414 Z" id="Shape" stroke-width="0.55"></path>
                <path d="M9.10153849,20.1093131 L1.93230775,20.1093131 L1.93230775,1.74609217 L18.0676923,1.74609217 L18.0676923,10.7344056 C18.0579714,11.1863181 18.3705862,11.5837251 18.8184615,11.6888098 C19.1040558,11.7529251 19.4038615,11.6863756 19.6335622,11.5078776 C19.8632629,11.3293797 19.998044,11.0582163 20,10.7706488 L20,1.20848472 C20,0.541265844 19.4489658,0.000378077032 18.7692308,0.000378077032 L1.26153852,0.000378077032 C0.929820193,-0.00776474088 0.608805943,0.115913684 0.371293719,0.343366199 C0.133781496,0.570818713 0,0.882772653 0,1.20848472 L0,20.7737718 C0,21.0994838 0.133781496,21.4114378 0.371293719,21.6388903 C0.608805943,21.8663428 0.929820193,21.9900212 1.26153852,21.9818784 L9.10153849,21.9818784 C9.63031789,21.9752659 10.0554276,21.5525996 10.0553846,21.0335147 C10.0522275,20.5147183 9.62990921,20.0921529 9.10153849,20.0791104 L9.10153849,20.1093131 Z" id="Path" stroke-width="0.55"></path>
                <path d="M14.9661539,15.8000748 C15.3322549,15.8000748 15.6637922,15.9455272 15.9044562,16.1804136 C16.1468118,16.4169512 16.2971398,16.7440498 16.2992443,17.1057312 C16.3007761,17.3722512 16.2204833,17.6261246 16.0770621,17.8390973 C15.9343974,18.0509465 15.7292049,18.2223342 15.4800465,18.324863 C15.2318718,18.426987 14.9645733,18.4506532 14.711604,18.4021786 C14.4581085,18.3536032 14.2190876,18.2326191 14.0278877,18.0460062 C13.8355993,17.8583308 13.710654,17.6229198 13.6594491,17.3730327 C13.6081286,17.122581 13.6308403,16.8574938 13.7344731,16.6109105 C13.8376834,16.3653323 14.0110786,16.1622551 14.2265374,16.0207193 C14.44088,15.8799167 14.6968444,15.8000748 14.9661539,15.8000748 Z" id="Path" stroke-width="0.5"></path>
                <path d="M15.421915,11.9691146 L16.5672989,13.6512327 L17.4798832,13.0490044 C17.7678869,12.9272273 18.100116,12.9688454 18.3569417,13.1639188 C18.5116209,13.2927806 18.6589765,13.4297696 18.80055,13.5768964 L19.0087665,13.8054413 L18.5940396,15.7486849 L19.661968,15.9544792 L20.2130769,17.5628261 L18.5068464,18.6721745 L19.1134253,19.5580365 C18.8002664,20.6585758 18.5837859,20.8710792 18.3418207,21.0696273 C18.1249315,21.2340866 17.8433092,21.2865213 17.583311,21.2153848 L17.4734589,21.1772984 L16.3728741,20.6553464 L16.1584452,21.7118625 L14.5277692,22.25 L13.4016684,20.5744553 L12.4833349,21.1738883 C12.1967284,21.2925634 11.8673294,21.2501752 11.6151721,21.0588236 C11.4571469,20.9311189 11.3077576,20.7936121 11.1690717,20.6485522 L10.9693286,20.4255787 L11.3756986,18.470655 L10.2982092,18.2708471 L9.75000003,16.6713333 L11.4566231,15.5541064 L10.8440477,14.6694475 C11.142502,13.636502 11.3515994,13.3849973 11.5689598,13.2000073 L11.6125709,13.1636843 L13.5891827,13.5645494 L13.8072344,12.5179948 C13.8572812,12.3756775 13.944786,12.2529511 14.0573008,12.1597552 L14.1461818,12.0955504 L15.421915,11.9691146 Z M15.0690464,14.4303537 L14.8699442,14.453012 L14.825969,14.5562698 C14.7241632,14.7551678 14.541525,14.9060815 14.3194644,14.9680091 C14.1712525,15.0154111 14.0184729,15.0772691 13.8712406,15.1504229 C13.6367147,15.2704851 13.3540546,15.2704851 13.1168611,15.1490776 L13.1168611,15.1490776 L12.8511344,15.0257702 L12.9756985,15.2825383 L13.018077,15.385284 C13.0886528,15.5948804 13.0739891,15.8265865 12.9713438,16.0350659 L12.9713438,16.0350659 L12.9676117,16.041599 L12.8964632,16.1777842 C12.8526967,16.2702887 12.8163243,16.3660783 12.7877191,16.4642932 C12.7042643,16.7196083 12.5131128,16.9178833 12.265046,17.0094663 L12.265046,17.0094663 L12.0097042,17.0989902 L12.2685125,17.1836711 L12.3733924,17.2294401 C12.5749176,17.332954 12.7255544,17.5066852 12.7986578,17.7211491 L12.7986578,17.7211491 L12.7994567,17.7238947 C12.8432537,17.8760989 12.9037934,18.0201321 12.9806355,18.1558721 L12.9806355,18.1558721 L12.9879981,18.1698964 L13.0351773,18.2893674 C13.0980828,18.4925554 13.0823565,18.7131855 12.9879981,18.9076526 L12.9879981,18.9076526 L12.7980116,19.3019429 L13.8013986,19.0199384 L13.9714315,19.1067599 C14.0868786,19.1603511 14.2063391,19.2052959 14.3287918,19.2411942 C14.5858236,19.322229 14.7864588,19.5109884 14.8796033,19.7540794 L14.8796033,19.7540794 L14.9846022,20.0426302 L15.0881441,19.7580511 L15.1340174,19.6569303 C15.2379653,19.4621188 15.4132693,19.3136669 15.6265868,19.2435865 C15.6282577,19.2430376 15.6299296,19.2424939 15.6316024,19.2419555 C15.6332582,19.2414704 15.634936,19.240998 15.6366134,19.2405239 C15.7910061,19.1968823 15.9405576,19.1381699 16.0830218,19.0652551 C16.3202084,18.9438511 16.6028685,18.9438511 16.840062,19.0652586 L16.840062,19.0652586 L17.1084523,19.189802 L16.9809355,18.9251594 L16.9364739,18.8246434 C16.8624272,18.6181512 16.8777955,18.3823731 16.9853734,18.1798672 C17.0593396,18.0406219 17.1189138,17.8944465 17.1631871,17.7435339 C17.1635951,17.742143 17.1640019,17.7407518 17.1664536,17.7332297 L17.1664536,17.7332297 L17.2154535,17.6181093 C17.3106313,17.4330554 17.4709212,17.283199 17.6596596,17.1854942 L17.6596596,17.1854942 L17.9520098,17.083006 L17.6772933,16.9866995 L17.5735572,16.9394052 C17.3744175,16.8329856 17.2268376,16.6574722 17.1589758,16.4469112 C17.1131278,16.293739 17.0523334,16.1509044 16.9761347,16.0159099 C16.8449051,15.7759022 16.8438385,15.4912482 16.9713239,15.2534145 L16.9713239,15.2534145 L17.0933912,15.0017934 L16.8191199,15.1291276 L16.6985967,15.1755479 C16.4932543,15.2374268 16.2686618,15.2218319 16.0713436,15.1282623 C15.9209819,15.0512942 15.7714122,14.9899705 15.6173271,14.9415268 C15.3659655,14.8734252 15.1580524,14.6808284 15.0690464,14.4303537 L15.0690464,14.4303537 Z" id="Shape" stroke-width="0.5"></path>
            </g>
        </g>
    </g>
</svg>