<?xml version="1.0" encoding="UTF-8"?>
<svg width="18px" height="10px" viewBox="0 0 18 10" version="1.1" xmlns="http://www.w3.org/2000/svg" xmlns:xlink="http://www.w3.org/1999/xlink">
    <title>Path</title>
    <g id="full-design" stroke="none" stroke-width="1" fill="none" fill-rule="evenodd">
        <g id="mockup-25" transform="translate(-1170.000000, -362.000000)" fill="#2E79A6" fill-rule="nonzero">
            <g id="form" transform="translate(715.000000, 94.000000)">
                <g id="Group-6" transform="translate(33.000000, 146.000000)">
                    <g id="noun-drop-down-2625917" transform="translate(422.000000, 121.999976)">
                        <path d="M1.29304715,0 C0.950636893,-0.00204365358 0.621537818,0.128939952 0.378785102,0.363924443 C0.136021366,0.598694669 -0.000214367183,0.918013887 0,1.25092822 C0.000215711732,1.58383185 0.137095737,1.9029368 0.380289221,2.13728921 L8.09372097,9.63656629 C8.33455083,9.86945634 8.66038272,10.0000241 9,10.0000241 C9.33961099,10.0000241 9.66544288,9.86945634 9.90626723,9.63656629 L17.619699,2.13728921 C17.8618181,1.90398134 17.9986984,1.58657444 18.0000126,1.25510639 C18.0014942,0.923665128 17.8674158,0.6051869 17.6272306,0.369816732 C17.3872602,0.134419781 17.0607892,0.00133975241 16.7198555,0 L1.29304715,0 Z" id="Path"></path>
                    </g>
                </g>
            </g>
        </g>
    </g>
</svg>