<?xml version="1.0" encoding="UTF-8"?>
<svg width="20px" height="20px" viewBox="0 0 20 20" version="1.1" xmlns="http://www.w3.org/2000/svg" xmlns:xlink="http://www.w3.org/1999/xlink">
    <title>Settings</title>
    <g id="full-design" stroke="none" stroke-width="1" fill="none" fill-rule="evenodd">
        <g id="mockup-04" transform="translate(-1282.000000, -27.000000)" fill="#FFFFFF" fill-rule="nonzero">
            <g id="noun_Dropdown_615120" transform="translate(1282.000000, 27.000000)">
                <path d="M17.1593316,10.98 C17.1993316,10.66 17.2293316,10.34 17.2293316,10 C17.2293316,9.66 17.1993316,9.34 17.1593316,9.02 L19.2693316,7.37 C19.4593316,7.22 19.5093316,6.95 19.3893316,6.73 L17.3893316,3.27 C17.2693316,3.05 16.9993316,2.97 16.7793316,3.05 L14.2893316,4.05 C13.7693316,3.65 13.2093316,3.32 12.5993316,3.07 L12.2193316,0.42 C12.1893316,0.18 11.9793316,0 11.7293316,0 L7.7293316,0 C7.4793316,0 7.2693316,0.18 7.2393316,0.42 L6.8593316,3.07 C6.2493316,3.32 5.6893316,3.66 5.1693316,4.05 L2.6793316,3.05 C2.4493316,2.96 2.1893316,3.05 2.0693316,3.27 L0.0693316039,6.73 C-0.0606683961,6.95 -0.00066839605,7.22 0.189331604,7.37 L2.2993316,9.02 C2.2593316,9.34 2.2293316,9.67 2.2293316,10 C2.2293316,10.33 2.2593316,10.66 2.2993316,10.98 L0.189331604,12.63 C-0.00066839605,12.78 -0.0506683961,13.05 0.0693316039,13.27 L2.0693316,16.73 C2.1893316,16.95 2.4593316,17.03 2.6793316,16.95 L5.1693316,15.95 C5.6893316,16.35 6.2493316,16.68 6.8593316,16.93 L7.2393316,19.58 C7.2693316,19.82 7.4793316,20 7.7293316,20 L11.7293316,20 C11.9793316,20 12.1893316,19.82 12.2193316,19.58 L12.5993316,16.93 C13.2093316,16.68 13.7693316,16.34 14.2893316,15.95 L16.7793316,16.95 C17.0093316,17.04 17.2693316,16.95 17.3893316,16.73 L19.3893316,13.27 C19.5093316,13.05 19.4593316,12.78 19.2693316,12.63 L17.1593316,10.98 Z M9.7293316,13.5 C7.7993316,13.5 6.2293316,11.93 6.2293316,10 C6.2293316,8.07 7.7993316,6.5 9.7293316,6.5 C11.6593316,6.5 13.2293316,8.07 13.2293316,10 C13.2293316,11.93 11.6593316,13.5 9.7293316,13.5 Z" id="Shape"></path>
            </g>
        </g>
    </g>
</svg>