<?xml version="1.0" encoding="UTF-8"?>
<svg width="240px" height="44px" viewBox="0 0 240 44" version="1.1" xmlns="http://www.w3.org/2000/svg" xmlns:xlink="http://www.w3.org/1999/xlink">
    <title>whitelogo-for-Dark-bg-horizontal</title>
    <g id="SIgn-in-" stroke="none" stroke-width="1" fill="none" fill-rule="evenodd">
        <g id="mockup-03" transform="translate(-60.000000, -113.000000)" fill="#FFFFFF" fill-rule="nonzero">
            <g id="whitelogo-for-Dark-bg-horizontal" transform="translate(60.000000, 113.000000)">
                <path d="M89.8267717,26.6254072 L86.9888106,33.5570033 L84.8404476,33.5570033 L94.3091587,10.4429967 L96.4575218,10.4429967 L96.5636138,10.4429967 L106.032325,33.5570033 L103.910485,33.5570033 L95.4496477,12.9446254 L90.7020307,24.514658 L97.4919188,24.514658 L98.6058848,26.6514658 L89.8267717,26.6514658 L89.8267717,26.6254072 L89.8267717,26.6254072 Z M156.585164,15.6807818 L156.585164,33.8175896 L152.978036,33.8175896 L152.978036,10.1824104 L156.691256,10.1824104 L169.793618,27.8762215 L169.793618,10.1824104 L173.400746,10.1824104 L173.400746,33.7915309 L169.89971,33.7915309 L156.585164,15.6807818 Z M178.731869,10.1824104 L194.884376,10.1824104 L194.884376,13.3094463 L182.338997,13.3094463 L182.338997,20.2149837 L194.645669,20.2149837 L194.645669,23.3420195 L182.338997,23.3420195 L182.338997,30.7166124 L194.884376,30.7166124 L194.884376,33.8436482 L178.731869,33.8436482 L178.731869,10.1824104 Z M221.486946,10.1824104 L240,10.1824104 L240,13.3094463 L232.57356,13.3094463 L232.57356,33.8175896 L228.966432,33.8175896 L228.966432,13.3094463 L221.486946,13.3094463 L221.486946,10.1824104 L221.486946,10.1824104 Z M49.273104,28.8664495 C51.050145,31.029316 53.7024451,32.2801303 56.5404061,32.2801303 C61.2615002,32.2801303 62.6406962,29.5960912 62.6406962,27.6416938 C62.6406962,24.3322476 59.5905512,23.52443 56.2221301,22.5863192 C52.5354331,21.5439739 48.636552,20.5276873 48.636552,16.2801303 C48.742644,12.4495114 52.1110651,10.0781759 56.3282221,10.0781759 C59.8027352,10.0781759 62.4285122,11.3289902 64.2055533,13.3876221 L62.8263572,14.8208469 C61.2084542,12.8925081 58.7418152,11.8241042 56.1956071,11.9283388 C53.1454621,11.9283388 50.837961,13.6742671 50.837961,16.1498371 C50.837961,18.9381107 53.7820141,19.6677524 56.9382511,20.47557 C60.7310402,21.5179153 64.8155823,22.742671 64.8155823,27.3811075 C64.8155823,30.3778502 62.8263572,34 56.5138831,34 C52.7210941,34 49.777041,32.4625407 48,30.2736156 L49.273104,28.8664495 Z M69.5631993,10.4690554 L71.5524244,10.4690554 L71.5524244,31.732899 L82.7981765,31.732899 L82.7981765,33.4788274 L69.5366763,33.4788274 L69.5366763,10.4690554 C69.5366763,10.4690554 69.5631993,10.4690554 69.5631993,10.4690554 Z M109.029424,28.8664495 C110.806465,31.029316 113.458765,32.2801303 116.296726,32.2801303 C121.01782,32.2801303 122.397016,29.5960912 122.397016,27.6416938 C122.397016,24.3322476 119.346871,23.52443 115.97845,22.5863192 C112.291753,21.5439739 108.392872,20.5276873 108.392872,16.2801303 C108.392872,12.4495114 111.761293,10.0781759 116.084542,10.0781759 C119.559055,10.0781759 122.184832,11.3289902 123.961873,13.3876221 L122.582677,14.8208469 C120.964774,12.8925081 118.498135,11.8241042 115.951927,11.9283388 C112.901782,11.9283388 110.488189,13.6742671 110.488189,16.1498371 C110.488189,18.9381107 113.432242,19.6677524 116.588479,20.47557 C120.381268,21.5179153 124.46581,22.742671 124.46581,27.3811075 C124.46581,30.3778502 122.476585,34 116.164111,34 C112.371322,34 109.427269,32.4625407 107.650228,30.2736156 L109.029424,28.8664495 Z M146.055533,22.5602606 L131.335267,22.5602606 L131.335267,33.6091205 L129.346042,33.6091205 L129.346042,10.4690554 L131.335267,10.4690554 L131.335267,20.7882736 L146.055533,20.7882736 L146.055533,10.4690554 L148.044758,10.4690554 L148.044758,33.5830619 L146.055533,33.5830619 L146.055533,22.5602606 Z M219.524244,10 L201.355988,33.7915309 L196.873601,33.7915309 L215.147949,10 C215.147949,10 219.524244,10 219.524244,10 Z" id="slashnext-text"></path>
                <path d="M30.0999146,29.4261057 C29.8881298,29.6418554 28.9880444,30.639698 28.9880444,31.9341963 C28.9880444,32.9050701 30.1263877,34.3074434 30.205807,34.4153182 C30.6823228,34.9007551 30.9735269,35.574973 30.9735269,36.3031284 C30.9735269,37.7864078 29.7822374,39 28.3262169,39 C26.8701964,39 25.6789069,37.7864078 25.6789069,36.3031284 C25.6789069,35.7367853 25.8377455,35.2243797 26.1554227,34.7928803 L26.1554227,34.7928803 C26.1554227,34.7928803 26.1554227,34.7928803 26.1818958,34.7659115 C26.2877882,34.6040992 26.4201537,34.4692557 26.5525192,34.3344121 C26.9496157,33.8220065 27.5055508,32.9320388 27.5320239,31.9341963 C27.558497,30.9093851 26.7907771,29.776699 26.4201537,29.2912621 C25.970111,28.8058252 25.70538,28.1585761 25.70538,27.4573894 C25.70538,25.97411 26.8966695,24.7605178 28.35269,24.7605178 C29.8087105,24.7605178 31,25.97411 31,27.4573894 C30.9470538,28.2394822 30.6293766,28.9406688 30.0999146,29.4261057 Z M13.0247652,36.3031284 C13.0247652,37.7864078 11.8334757,39 10.3774552,39 C8.92143467,39 7.73014518,37.7864078 7.73014518,36.3031284 C7.73014518,34.819849 8.92143467,33.6062567 10.3774552,33.6062567 C11.8334757,33.6062567 13.0247652,34.819849 13.0247652,36.3031284 Z M5.29461998,22.0636462 C5.29461998,23.5469256 4.10333049,24.7605178 2.64730999,24.7605178 C1.1912895,24.7605178 0,23.5469256 0,22.0636462 C0,20.5803668 1.1912895,19.3667745 2.64730999,19.3667745 C4.10333049,19.3667745 5.29461998,20.5803668 5.29461998,22.0636462 Z M30.9470538,16.6968716 C30.9470538,18.180151 29.7557643,19.3937433 28.2997438,19.3937433 C26.8437233,19.3937433 25.6524338,18.180151 25.6524338,16.6968716 C25.6524338,15.2135922 26.8437233,14 28.2997438,14 C29.7822374,14.0269687 30.9470538,15.2135922 30.9470538,16.6968716 Z M21.9726729,31.8802589 C21.9726729,33.3635383 20.7813834,34.5771305 19.3253629,34.5771305 C17.8693424,34.5771305 16.6780529,33.3635383 16.6780529,31.8802589 C16.6780529,30.3969795 17.8693424,29.1833873 19.3253629,29.1833873 C20.8078565,29.1833873 21.9726729,30.3969795 21.9726729,31.8802589 Z" id="grey-cells"></path>
                <polygon id="x-leg-grd" points="198 10 202.510067 10 221.194631 34.1356554 222.510067 35.8102658 234 37.9101742 229.38255 39 218.966443 37.192484 216.389262 33.8432631"></polygon>
                <path d="M12.4661191,18.4507553 C12.4394251,18.4773414 11.0513347,20.2320242 11.0780287,21.9335347 C11.1047228,23.6350453 12.4661191,25.5492447 12.5462012,25.6821752 C12.8932238,26.134139 13.1067762,26.6924471 13.1067762,27.3305136 C13.1067762,28.7927492 11.9055441,29.9891239 10.4373717,29.9891239 C8.96919918,29.9891239 7.76796715,28.7927492 7.76796715,27.3305136 C7.76796715,26.7987915 7.92813142,26.2936556 8.19507187,25.8682779 C8.30184805,25.6555891 9.55646817,23.4223565 9.63655031,21.6410876 C9.6899384,20.5776435 8.94250513,19.2483384 8.46201232,18.5039275 C8.30184805,18.3444109 8.19507187,18.1583082 8.08829569,17.9722054 C8.08829569,17.9190332 8.06160164,17.9190332 8.06160164,17.9190332 L8.06160164,17.9190332 C7.87474333,17.5468278 7.76796715,17.1480363 7.76796715,16.7226586 C7.76796715,15.260423 8.96919918,14.0640483 10.4373717,14.0640483 C11.9055441,14.0640483 13.1067762,15.260423 13.1067762,16.7226586 C13.1334702,17.3607251 12.8665298,17.9722054 12.4661191,18.4507553 Z M11.1581109,10.341994 C10.9445585,10.3951662 10.7043121,10.4217523 10.4640657,10.4217523 L10.4640657,10.4217523 C8.99589322,10.4217523 7.79466119,9.22537764 7.79466119,7.76314199 C7.79466119,6.30090634 8.99589322,5.10453172 10.4640657,5.10453172 C11.6119097,5.10453172 12.5995893,5.8223565 12.973306,6.8326284 C13.0533881,7.01873112 13.8809035,8.87975831 15.349076,9.57099698 C16.6303901,10.1558912 18.1519507,9.89003021 18.7125257,9.7570997 C18.9527721,9.67734139 19.2464066,9.62416918 19.513347,9.62416918 C20.9815195,9.62416918 22.1827515,10.8205438 22.1827515,12.2827795 C22.1827515,13.7450151 20.9815195,14.9413897 19.513347,14.9413897 C18.4455852,14.9413897 17.5379877,14.3299094 17.110883,13.4259819 C16.6303901,12.7081571 15.6427105,11.3522659 14.4681725,10.6876133 C13.5071869,10.2090634 12.0123203,10.2622356 11.1581109,10.341994 Z M22.1560575,2.65861027 C22.1560575,4.12084592 20.9548255,5.31722054 19.486653,5.31722054 C18.0184805,5.31722054 16.8172485,4.12084592 16.8172485,2.65861027 C16.8172485,1.19637462 18.0184805,0 19.486653,0 C20.9815195,0 22.1560575,1.19637462 22.1560575,2.65861027 Z M31.2053388,7.7897281 C31.2053388,9.25196375 30.0041068,10.4483384 28.5359343,10.4483384 C27.0677618,10.4483384 25.8665298,9.25196375 25.8665298,7.7897281 C25.8665298,6.32749245 27.0677618,5.13111782 28.5359343,5.13111782 C30.0308008,5.13111782 31.2053388,6.32749245 31.2053388,7.7897281 Z M39,12.3093656 C39,13.7716012 37.798768,14.9679758 36.3305955,14.9679758 C34.862423,14.9679758 33.661191,13.7716012 33.661191,12.3093656 C33.661191,10.8471299 34.862423,9.65075529 36.3305955,9.65075529 C37.798768,9.67734139 39,10.8471299 39,12.3093656 Z M5.33880903,12.3093656 C5.33880903,13.7716012 4.137577,14.9679758 2.66940452,14.9679758 C1.20123203,14.9679758 0,13.7716012 0,12.3093656 C0,10.8471299 1.20123203,9.65075529 2.66940452,9.65075529 C4.137577,9.67734139 5.33880903,10.8471299 5.33880903,12.3093656 Z M39,21.9867069 C39,23.4489426 37.798768,24.6453172 36.3305955,24.6453172 C34.862423,24.6453172 33.661191,23.4489426 33.661191,21.9867069 C33.661191,20.5244713 34.862423,19.3280967 36.3305955,19.3280967 C37.798768,19.3280967 39,20.5244713 39,21.9867069 Z M39,31.6640483 C39,33.126284 37.798768,34.3226586 36.3305955,34.3226586 C34.862423,34.3226586 33.661191,33.126284 33.661191,31.6640483 C33.661191,30.2018127 34.862423,29.0054381 36.3305955,29.0054381 C37.798768,29.0054381 39,30.2018127 39,31.6640483 Z M5.33880903,31.6640483 C5.33880903,33.126284 4.137577,34.3226586 2.66940452,34.3226586 C1.20123203,34.3226586 0,33.126284 0,31.6640483 C0,30.2018127 1.20123203,29.0054381 2.66940452,29.0054381 C4.137577,29.0054381 5.33880903,30.2018127 5.33880903,31.6640483 Z M22.1560575,41.3413897 C22.1560575,42.8036254 20.9548255,44 19.486653,44 C18.0184805,44 16.8172485,42.8036254 16.8172485,41.3413897 C16.8172485,39.8791541 18.0184805,38.6827795 19.486653,38.6827795 C20.9815195,38.6827795 22.1560575,39.852568 22.1560575,41.3413897 Z" id="blue-cells"></path>
                <path d="M19.5,27 C16.4672897,27 14,24.5327103 14,21.5 C14,18.4672897 16.4672897,16 19.5,16 C22.5327103,16 25,18.4672897 25,21.5 C25,24.5327103 22.5327103,27 19.5,27 Z M21.2733645,21.4485981 C22.0957944,21.4485981 22.7897196,20.7803738 22.7897196,19.932243 C22.7897196,19.1098131 22.1214953,18.4158879 21.2733645,18.4158879 C20.4509346,18.4158879 19.7570093,19.0841121 19.7570093,19.932243 C19.7827103,20.7803738 20.4509346,21.4485981 21.2733645,21.4485981 Z" id="mother-cell"></path>
            </g>
        </g>
    </g>
</svg>