<?xml version="1.0" encoding="UTF-8"?>
<svg width="10px" height="6px" viewBox="0 0 10 6" version="1.1" xmlns="http://www.w3.org/2000/svg" xmlns:xlink="http://www.w3.org/1999/xlink">
    <g id="full-design" stroke="none" stroke-width="1" fill="none" fill-rule="evenodd">
        <g id="mockup-23" transform="translate(-195.000000, -155.000000)" fill="#FFFFFF" fill-rule="nonzero">
            <g id="Group-6" transform="translate(64.000000, 131.000000)">
                <g id="Group-3" transform="translate(131.000000, 17.000000)">
                    <g id="Sorting-" transform="translate(0.000000, 7.207921)">
                        <path d="M0.090625,0.745126856 L0.146875,0.808477723 L4.396875,5.52962562 C4.540625,5.68951114 4.75625,5.7890625 4.996875,5.7890625 C5.2375,5.7890625 5.453125,5.68649443 5.596875,5.52962562 L9.84375,0.817527847 L9.915625,0.739093441 C9.96875,0.663675743 10,0.573174505 10,0.476639851 C10,0.214186262 9.76875,0 9.48125,0 L9.48125,0 L0.51875,0 L0.51875,0 C0.23125,0 0,0.214186262 0,0.476639851 C0,0.576191213 0.034375,0.669709158 0.090625,0.745126856 Z" id="Path"></path>
                    </g>
                </g>
            </g>
        </g>
    </g>
</svg>