<?xml version="1.0" encoding="UTF-8"?>
<svg width="61px" height="61px" viewBox="0 0 61 61" version="1.1" xmlns="http://www.w3.org/2000/svg" xmlns:xlink="http://www.w3.org/1999/xlink">
    <g id="SIgn-in-" stroke="none" stroke-width="1" fill="none" fill-rule="evenodd">
        <g id="mockup-05" transform="translate(-920.000000, -378.000000)" fill="#2E79A6" fill-rule="nonzero">
            <g id="Spinner" transform="translate(950.500000, 408.500000) rotate(55.000000) translate(-950.500000, -408.500000) translate(929.000000, 387.000000)">
                <path d="M28.6667378,5.65786815 C28.6667378,8.78282997 25.9931151,11.3157363 22.6945452,11.3157363 C19.3959752,11.3157363 16.7223526,8.78282997 16.7223526,5.65786815 C16.7223526,2.53290633 19.3959752,-1.42108547e-14 22.6945452,-1.42108547e-14 C25.9931151,-1.42108547e-14 28.6667378,2.53290633 28.6667378,5.65786815" id="Path"></path>
                <path d="M15.4084702,10.6367921 C15.4084702,13.4487526 13.0018899,15.7286714 10.0337102,15.7286714 C7.06510384,15.7286714 4.65852352,13.4487526 4.65852352,10.6367921 C4.65852352,7.82442752 7.06510384,5.54450872 10.0337102,5.54450872 C13.0018899,5.54450872 15.4084702,7.82442752 15.4084702,10.6367921" id="Path"></path>
                <path d="M9.55572145,22.6314726 C9.55572145,25.13124 7.41650339,27.1578681 4.77786072,27.1578681 C2.13921806,27.1578681 0,25.13124 0,22.6314726 C0,20.1317052 2.13921806,18.105077 4.77786072,18.105077 C7.41650339,18.105077 9.55572145,20.1317052 9.55572145,22.6314726" id="Path"></path>
                <path d="M14.2140317,34.6261531 C14.2140317,36.8137274 12.3422825,38.5869639 10.0336035,38.5869639 C7.72449789,38.5869639 5.85274875,36.8137274 5.85274875,34.6261531 C5.85274875,32.4389829 7.72449789,30.6657464 10.0336035,30.6657464 C12.3422825,30.6657464 14.2140317,32.4389829 14.2140317,34.6261531" id="Path"></path>
                <path d="M26.2778607,39.605077 C26.2778607,41.4801552 24.6735805,43 22.6943319,43 C20.7150833,43 19.110803,41.4801552 19.110803,39.605077 C19.110803,37.7299989 20.7150833,36.2101541 22.6943319,36.2101541 C24.6735805,36.2101541 26.2778607,37.7299989 26.2778607,39.605077" id="Path"></path>
                <path d="M38.3416898,34.6261531 C38.3416898,36.188634 37.0048784,37.4550871 35.3555935,37.4550871 C33.7067351,37.4550871 32.3694972,36.188634 32.3694972,34.6261531 C32.3694972,33.0640763 33.7067351,31.797219 35.3555935,31.797219 C37.0048784,31.797219 38.3416898,33.0640763 38.3416898,34.6261531" id="Path"></path>
                <path d="M43,22.6314726 C43,23.8813563 41.9306576,24.8944178 40.6113363,24.8944178 C39.2920149,24.8944178 38.2226725,23.8813563 38.2226725,22.6314726 C38.2226725,21.3815889 39.2920149,20.3685274 40.6113363,20.3685274 C41.9306576,20.3685274 43,21.3815889 43,22.6314726" id="Path"></path>
                <path d="M37.1472513,10.6367921 C37.1472513,11.5741089 36.3453244,12.3338495 35.3554868,12.3338495 C34.3660971,12.3338495 33.564149,11.5741291 33.564149,10.6367921 C33.564149,9.6990813 34.3660758,8.93933064 35.3554868,8.93933064 C36.3452924,8.93933064 37.1472513,9.69905099 37.1472513,10.6367921" id="Path"></path>
            </g>
        </g>
    </g>
</svg>