<?xml version="1.0" encoding="UTF-8"?>
<svg width="14px" height="10px" viewBox="0 0 14 10" version="1.1" xmlns="http://www.w3.org/2000/svg" xmlns:xlink="http://www.w3.org/1999/xlink">
    <title>Path</title>
    <g id="full-design" stroke="none" stroke-width="1" fill="none" fill-rule="evenodd">
        <g id="mockup-10-copy-2" transform="translate(-753.000000, -176.000000)" fill="#2E79A6" fill-rule="nonzero">
            <g id="form" transform="translate(715.000000, 94.000000)">
                <g id="Billing" transform="translate(33.000000, 16.000000)">
                    <g id="Icon/Progress-Indicator/Current" transform="translate(0.000000, 59.000000)">
                        <path d="M17.4181182,7.10097643 L18.3984802,8.07609113 C18.5338399,8.21072638 18.5338399,8.42901324 18.3984802,8.56364848 L10.065403,16.8521234 C10.0538988,16.8635661 10.041787,16.8740363 10.029171,16.8835339 L10.0131489,16.8990235 C9.87778915,17.0336588 9.65832763,17.0336588 9.52296788,16.8990235 L5.60151981,12.9985647 C5.46616006,12.8639295 5.46616006,12.6456426 5.60151981,12.5110074 L6.58188183,11.5358927 C6.71724158,11.4012574 6.93670309,11.4012574 7.07206284,11.5358927 L9.77051168,14.2199602 L16.9279372,7.10097643 C17.0632969,6.96634119 17.2827584,6.96634119 17.4181182,7.10097643 Z" id="Path"></path>
                    </g>
                </g>
            </g>
        </g>
    </g>
</svg>