<?xml version="1.0" encoding="UTF-8"?>
<svg width="10px" height="13px" viewBox="0 0 10 13" version="1.1" xmlns="http://www.w3.org/2000/svg" xmlns:xlink="http://www.w3.org/1999/xlink">
    <title>Group 3</title>
    <g id="full-design" stroke="none" stroke-width="1" fill="none" fill-rule="evenodd">
        <g id="mockup-07" transform="translate(-861.000000, -152.000000)" fill="#FFFFFF" fill-rule="nonzero">
            <g id="Group-6" transform="translate(64.000000, 135.000000)">
                <g id="Group-3" transform="translate(797.000000, 17.003017)">
                    <g id="iconfinder_icon-arrow-up-b_211623">
                        <path d="M9.909375,5.04393564 L9.853125,4.98058478 L5.603125,0.259436881 C5.459375,0.0995513614 5.24375,0 5.003125,0 C4.7625,0 4.546875,0.102568069 4.403125,0.259436881 L0.15625,4.97153465 L0.084375,5.04996906 C0.03125,5.12538676 0,5.215888 0,5.31242265 C0,5.57487624 0.23125,5.7890625 0.51875,5.7890625 L0.51875,5.7890625 L9.48125,5.7890625 L9.48125,5.7890625 C9.76875,5.7890625 10,5.57487624 10,5.31242265 C10,5.21287129 9.965625,5.11935334 9.909375,5.04393564 Z" id="Path"></path>
                    </g>
                    <g id="iconfinder_icon-arrow-down-b_211614" transform="translate(0.000000, 7.204904)">
                        <path d="M0.090625,0.745126856 L0.146875,0.808477723 L4.396875,5.52962562 C4.540625,5.68951114 4.75625,5.7890625 4.996875,5.7890625 C5.2375,5.7890625 5.453125,5.68649443 5.596875,5.52962562 L9.84375,0.817527847 L9.915625,0.739093441 C9.96875,0.663675743 10,0.573174505 10,0.476639851 C10,0.214186262 9.76875,0 9.48125,0 L9.48125,0 L0.51875,0 L0.51875,0 C0.23125,0 0,0.214186262 0,0.476639851 C0,0.576191213 0.034375,0.669709158 0.090625,0.745126856 Z" id="Path"></path>
                    </g>
                </g>
            </g>
        </g>
    </g>
</svg>