<?xml version="1.0" encoding="UTF-8"?>
<svg width="16px" height="16px" viewBox="0 0 20 20" version="1.1" xmlns="http://www.w3.org/2000/svg" xmlns:xlink="http://www.w3.org/1999/xlink">
    <title>noun_Search_152865</title>
    <g id="full-design" stroke="none" stroke-width="1" fill="none" fill-rule="evenodd">
        <g id="mockup-26" transform="translate(-1249.000000, -194.000000)" fill="#FFFFFF" fill-rule="nonzero">
            <g id="noun_Search_152865" transform="translate(1249.000000, 194.000000)">
                <path d="M19.6338313,17.8662222 L15.7506986,13.9831111 C18.3180462,10.556 18.0533781,5.67911111 14.9371385,2.56288889 C13.2286846,0.854222222 10.9893388,0 8.74999306,0 C6.51064728,0 4.27130151,0.854222222 2.56284757,2.56288889 C-0.854282524,5.98 -0.854282524,11.5202222 2.56284757,14.9373333 C4.27130151,16.6457778 6.5108695,17.5002222 8.74999306,17.5002222 C10.5948922,17.5002222 12.4349024,16.9106667 13.9831332,15.7508889 L17.8662659,19.634 C18.1104895,19.878 18.4302691,20 18.7500486,20 C19.0698282,20 19.3896077,19.878 19.6338313,19.6337778 C20.1220562,19.1455556 20.1220562,18.3544444 19.6338313,17.8662222 Z M4.33063517,13.1693333 C3.14996194,11.9888889 2.49995833,10.4193333 2.49995833,8.75 C2.49995833,7.08066667 3.14996194,5.51111111 4.33063517,4.33066667 C5.51108617,3.15022222 7.08065045,2.5 8.74999306,2.5 C10.4193357,2.5 11.9888999,3.15 13.1693509,4.33066667 C14.3500242,5.51111111 15.0000278,7.08066667 15.0000278,8.75 C15.0000278,10.4193333 14.3500242,11.9888889 13.1693509,13.1695556 C11.9888999,14.35 10.4195579,15 8.74999306,15 C7.08042822,15 5.51108617,14.35 4.33063517,13.1693333 Z" id="Shape"></path>
            </g>
        </g>
    </g>
</svg>
